<?xml version="1.0" encoding="UTF-8" standalone="no"?>
<svg
   xmlns:dc="http://purl.org/dc/elements/1.1/"
   xmlns:cc="http://creativecommons.org/ns#"
   xmlns:rdf="http://www.w3.org/1999/02/22-rdf-syntax-ns#"
   xmlns:svg="http://www.w3.org/2000/svg"
   xmlns="http://www.w3.org/2000/svg"
   id="54ce1d28-45dc-11ec-9579-0242ac110003"
   version="1.1"
   width="595.275590551pt"
   viewBox="0 0 595.275590551 419.527559055"
   height="419.527559055pt">
  <metadata
     id="metadata91">
    <rdf:RDF>
      <cc:Work
         rdf:about="">
        <dc:format>image/svg+xml</dc:format>
        <dc:type
           rdf:resource="http://purl.org/dc/dcmitype/StillImage" />
      </cc:Work>
    </rdf:RDF>
  </metadata>
  <defs
     id="defs89" />
  <g
     id="g2" />
  <g
     id="g40">
    <g
       id="g38">
      <g
         id="g12">
        <path
           id="path4"
           d="M 101.1303,217.1223 L 100.8288,217.1223 C 100.1029,217.1223 99.02,216.0394 99.02,215.3135 L 99.02,211.3944 C 99.02,205.7327 107.9285,187.2767 112.8877,187.2767 L 113.4906,187.2767 C 114.8218,187.2767 115.9024,189.5954 115.9024,191.1958 L 115.9024,192.4017 C 115.9024,199.6717 106.6028,217.1223 101.1303,217.1223 Z M 87.2626,215.3135 L 87.2626,216.8209 C 87.2626,220.4544 89.538,224.9606 92.9905,224.9606 L 93.8949,224.9606 C 98.0958,224.9606 101.004,222.5451 103.1679,220.3659 104.6499,218.8735 108.6675,213.5071 109.5715,212.9017 109.3623,215.4144 107.4612,217.7589 107.4612,220.74 L 107.4612,221.6444 C 107.4612,223.3368 109.4542,224.9606 111.0788,224.9606 L 114.0935,224.9606 C 118.9161,224.9606 124.933,218.1545 126.7553,214.7106 126.5709,214.4352 126.2646,213.8061 125.8509,213.8061 124.6405,213.8061 122.1569,218.9312 119.52,218.9312 119.1531,218.9312 118.6156,218.3076 118.6156,217.7253 L 118.6156,217.4238 C 118.6156,216.3948 123.6822,202.988 124.4415,201.2423 125.5633,198.6632 126.324,195.771 127.3146,193.2624 128.1759,191.0814 129.8606,187.3656 130.3745,185.2129 L 120.1452,185.4767 118.0127,190.2914 C 117.3208,187.3217 116.5724,184.5634 112.8877,184.5634 L 111.0788,184.5634 C 105.4431,184.5634 97.8308,192.2007 95.1506,195.7677 91.905,200.087 87.2626,207.9461 87.2626,215.3135 Z"
           style="fill-rule:evenodd;fill:#08397c;" />
        <path
           id="path6"
           d="M 47.7698,220.4385 L 44.1284,220.4299 53.1963,194.8135 56.814,194.8135 C 61.7232,194.8135 65.5566,197.8267 65.5566,202.6517 65.5566,213.3609 58.7915,220.4385 47.7698,220.4385 Z M 62.668,169.2339 L 65.2552,169.1884 C 69.3937,169.1884 72.189,171.9633 72.189,176.1222 72.189,183.8775 64.9886,191.4973 57.1154,191.4973 L 54.628,191.4699 62.668,169.2339 Z M 42.6448,167.681 L 43.8507,167.681 C 46.2326,167.681 48.9757,168.6875 48.9757,170.9972 L 48.9757,171.9016 C 48.9757,173.6322 40.7744,195.8283 39.5405,198.9444 37.8124,203.3083 36.1582,207.9491 34.6387,212.4324 33.0634,217.08 31.8817,221.9459 25.7624,221.9459 L 23.6629,221.9486 23.3507,223.4532 53.4978,223.4532 C 61.4121,223.4532 66.3327,222.5912 71.2806,219.5301 74.9282,217.2733 79.4243,211.8735 79.4243,205.9679 L 79.4243,205.6664 C 79.4243,198.2141 71.9916,194.4336 65.8581,193.0046 67.1887,192.0801 75.6253,190.4094 79.0049,188.3646 82.123,186.478 86.0567,182.1132 86.0567,177.3281 L 86.0567,176.4237 C 86.0567,168.9029 78.2516,166.1737 70.3802,166.1737 L 43.5492,166.1737 C 42.5628,166.1737 42.6448,166.7142 42.6448,167.681 Z"
           style="fill-rule:evenodd;fill:#07387c;" />
        <path
           id="path8"
           d="M 138.2318,187.1011 L 137.6151,188.7256 141.2259,189.0855 C 141.6419,189.7067 142.1304,189.868 142.1304,190.5929 L 142.1304,191.4973 C 142.1304,193.0566 137.2324,205.9654 136.4033,207.7776 135.7516,209.2021 130.4357,223.3028 130.373,224.0562 L 140.9245,224.0562 C 142.1086,224.0562 144.3478,216.051 144.9599,214.5254 146.607,210.4197 147.5637,209.1959 149.8439,205.8431 151.7782,202.999 160.2792,192.7031 163.8363,192.7031 L 164.7407,192.7031 C 165.5469,192.7031 165.6324,193.1383 165.9466,193.6076 164.7534,198.7293 156.601,215.423 156.601,218.6297 L 156.601,220.74 C 156.601,222.4428 158.8213,224.3577 160.5201,224.3577 L 163.8363,224.3577 C 167.4933,224.3577 175.494,216.822 176.1707,213.8686 L 174.3878,213.2032 C 173.712,214.4803 170.5427,218.6297 168.9613,218.6297 168.5476,218.6297 168.2413,218.0006 168.0569,217.7253 168.9179,214.0294 171.6541,207.8418 173.1819,204.4605 174.5449,201.4438 177.704,194.2201 177.704,190.2914 177.704,187.4173 175.3191,184.5634 172.579,184.5634 167.392,184.5634 162.0668,188.5689 159.3869,191.2684 157.5469,193.1219 150.9542,201.0873 149.8628,201.7078 L 155.998,184.5634 154.1777,184.4926 138.2318,187.1011 Z"
           style="fill-rule:evenodd;fill:#08397c;" />
        <path
           id="path10"
           d="M 194.5863,167.681 L 194.2849,169.4899 195.1893,169.4899 C 196.8604,169.4899 197.9026,169.9093 197.9026,171.6001 L 197.9026,172.806 C 197.9026,173.9285 189.8532,194.9275 188.731,198.3037 187.4737,202.0867 185.57,207.5397 184.0398,211.0979 183.1737,213.1117 179.6757,222.0981 179.5128,224.0562 L 190.6672,224.0562 C 190.7046,222.3778 193.6422,215.6419 194.2838,213.5036 194.7913,211.8119 195.4379,209.7539 196.7452,208.7297 197.8397,207.8723 199.6584,206.0025 200.9173,205.6664 200.9173,207.5368 202.0256,214.827 202.4775,217.0694 203.1562,220.4372 204.0333,224.6591 208.1526,224.6591 213.3981,224.6591 219.1494,216.9196 221.1828,213.1362 L 219.9099,211.9973 C 218.724,212.8662 217.0202,216.8209 215.3879,216.8209 L 215.0864,216.8209 C 213.0268,216.8209 210.5644,200.2801 210.5644,196.9237 212.5489,195.8737 215.8511,192.6935 218.2821,191.0753 219.7154,190.121 220.8821,189.3036 222.6221,188.7829 224.7003,188.1611 226.6599,188.2807 226.8438,186.0708 L 209.0678,186.0735 208.7555,187.5782 C 210.2376,187.5782 213.5791,188.1835 213.5791,189.387 213.5791,192.0024 199.7987,203.39 197.2772,205.0554 L 211.4687,165.8722 205.7408,165.8722 C 202.5777,165.8722 198.2995,167.681 194.5863,167.681 Z"
           style="fill-rule:evenodd;fill:#08397c;" />
      </g>
      <g
         id="g26">
        <path
           id="path14"
           d="M 275.6122,205.6075 L 275.6122,214.7133 C 277.1121,214.3639 283.2879,210.0832 284.1007,210.0832 284.9029,210.0832 290.8821,214.2332 292.2806,214.559 L 292.2806,204.9901 284.4145,200.5056 275.6122,205.6075 Z"
           style="fill-rule:evenodd;fill:#bd9803;" />
        <path
           id="path16"
           d="M 259.5613,214.8677 L 259.5613,223.9735 267.7411,219.3434 267.7411,210.2376 259.5613,214.8677 Z"
           style="fill-rule:evenodd;fill:#bd9803;" />
        <path
           id="path18"
           d="M 299.843,219.0348 L 308.6402,223.9735 308.6402,214.7133 299.843,209.6202 299.843,219.0348 Z"
           style="fill-rule:evenodd;fill:#bd9803;" />
        <path
           id="path20"
           d="M 259.5613,223.9735 L 259.5613,214.8677 259.5613,186.3155 284.0924,172.8731 308.5858,186.8736 308.6402,214.7133 308.6402,223.9735 316.6657,219.4978 316.6657,182.6114 C 316.6657,181.926 302.2539,173.8319 300.5521,172.7965 299.1265,171.9292 284.2741,163.165 284.2551,163.165 283.5644,163.165 269.7649,171.7441 267.9871,172.8256 265.7115,174.21 252.9807,182.2668 251.6901,182.6114 L 251.7264,219.435 259.5613,223.9735 Z"
           style="fill-rule:evenodd;fill:#06377b;" />
        <path
           id="path22"
           d="M 275.6122,223.9735 L 275.4579,233.0793 275.7573,233.2193 283.9372,228.0008 292.2806,233.2337 292.2806,223.9735 C 290.9217,223.6569 284.8506,219.3434 284.1007,219.3434 283.2879,219.3434 277.1121,223.6241 275.6122,223.9735 Z"
           style="fill-rule:evenodd;fill:#bd9803;" />
        <path
           id="path24"
           d="M 267.7411,210.2376 L 267.7411,219.3434 267.7861,228.5284 275.4579,233.0793 275.6122,223.9735 275.6122,214.7133 275.6122,205.6075 275.6122,196.3473 284.0867,191.0775 292.2416,196.1017 292.2806,204.9901 292.2806,214.559 292.2806,223.9735 292.2806,233.2337 299.843,228.6036 299.843,219.0348 299.843,209.6202 299.843,191.7173 284.4192,182.1327 267.771,191.6156 267.7411,210.2376 Z"
           style="fill-rule:evenodd;fill:#06377b;" />
      </g>
      <g
         id="g36">
        <path
           id="path28"
           d="M 369.2124,203.3085 L 376.6617,203.2758 C 380.8298,203.2758 390.8309,202.816 390.8309,206.5919 390.8309,212.7646 387.4091,212.5818 384.1985,214.7317 L 380.5896,215.11 364.8304,215.0054 369.2124,203.3085 Z M 377.6674,179.7975 L 392.6397,179.761 C 394.1516,179.761 396.5589,180.1629 396.5589,181.5698 L 396.5589,183.0772 C 396.5589,186.791 392.5246,188.8051 388.7206,188.8051 L 374.4324,188.7622 377.6674,179.7975 Z M 338.8461,230.6615 L 382.9926,230.7096 C 389.9136,230.7096 398.6677,226.6685 402.6448,223.5309 407.331,219.8338 411.3309,213.7283 411.3309,205.386 411.3309,202.6205 409.0818,197.1698 407.1103,196.6434 L 407.1103,195.739 C 412.2751,194.5357 417.6618,185.5901 417.6618,178.5551 417.6618,166.2731 407.1157,164.0845 394.75,164.0845 L 363.1863,164.1177 338.8461,230.6615 Z"
           style="fill-rule:evenodd;fill:#06377b;" />
        <path
           id="path30"
           d="M 425.8016,180.6654 L 447.1022,180.7362 429.1177,231.0111 449.9192,231.0111 C 449.9722,228.6339 457.4525,209.564 458.7934,205.5176 460.2378,201.1588 461.9176,197.2416 463.3539,192.8943 463.9202,191.1803 467.2524,180.6654 468.309,180.6654 L 488.063,180.6135 493.9341,164.0845 432.4339,164.0845 C 431.434,164.0845 429.4371,170.7614 428.9365,172.043 427.9834,174.4827 426.3984,178.43 425.8016,180.6654 Z"
           style="fill-rule:evenodd;fill:#06377b;" />
        <path
           id="path32"
           d="M 475.8791,231.0233 L 495.6189,230.9667 509.2762,193.2444 520.765,231.0111 539.8922,230.9497 564.4784,164.0845 C 558.6588,164.0845 552.8047,164.1474 546.9894,164.0808 544.3876,164.051 544.9604,163.7028 544.3935,165.7056 544.0788,166.8175 543.443,168.122 543.1401,168.9742 542.2947,171.3518 541.6418,173.3348 540.8543,175.7326 539.5172,179.8042 531.6717,199.659 531.618,202.0699 L 531.1378,202.0333 519.8606,164.0845 500.375,164.1247 475.8791,231.0233 Z"
           style="fill-rule:evenodd;fill:#06377b;" />
        <path
           id="path34"
           d="M 373.044,275.6289 C 374.1723,262.0704 438.7984,252.1416 457.1259,249.9752 465.2054,249.0201 473.7854,248.1865 481.6398,247.0552 489.4255,245.9337 498.6321,244.861 506.2994,244.2808 510.1143,243.9922 515.188,243.4691 518.7303,242.8441 522.6925,242.145 526.9734,242.1864 530.9395,241.4871 534.6501,240.8327 539.2966,240.7212 543.1066,240.088 546.6293,239.5026 551.5878,238.8494 555.4342,238.8494 L 555.4342,238.5479 C 545.0623,238.5479 534.6728,238.4284 524.988,239.1532 515.1273,239.8912 504.0762,238.6582 494.5583,239.7751 489.9943,240.3107 484.0062,239.7998 479.4422,240.3354 475.1326,240.8411 469.0377,240.6622 464.3899,240.6582 459.3395,240.6538 454.6473,241.2613 449.3163,241.2612 445.7871,241.261 437.8377,241.407 434.6645,241.9844 432.0861,242.4536 422.5819,242.7821 419.7709,242.7673 415.4372,242.7445 410.1759,243.7967 405.6071,243.9785 400.8435,244.168 395.8828,244.9254 391.4052,245.4531 388.9436,245.7432 386.7885,245.858 384.3805,246.2667 382.4218,246.5991 379.3241,247.1817 377.863,247.286 367.3902,248.0328 332.3454,255.5399 332.3454,263.8715 L 332.3454,264.7759 C 332.3454,273.5604 362.0358,275.6289 373.044,275.6289 Z"
           style="fill-rule:evenodd;fill:#ee1e26;" />
      </g>
    </g>
  </g>
  <g
     id="g42" />
  <g
     id="g44" />
  <rect
     id="rect46"
     width="595.275590551"
     height="419.527559055"
     style="fill:none;stroke:black;"
     x="625.275590551"
     y="0.0" />
  <g
     id="g48" />
  <g
     id="g80">
    <g
       id="g78">
      <path
         id="path50"
         d="M 968.0662,176.2296 L 967.7479,176.2296 C 966.9816,176.2296 965.8383,175.0863 965.8383,174.3199 L 965.8383,170.1823 C 965.8383,164.2049 975.2435,144.7199 980.4792,144.7199 L 981.1157,144.7199 C 982.5211,144.7199 983.662,147.168 983.662,148.8575 L 983.662,150.1306 C 983.662,157.806 973.8439,176.2296 968.0662,176.2296 Z M 953.4254,174.3199 L 953.4254,175.9113 C 953.4254,179.7474 955.8276,184.5048 959.4727,184.5048 L 960.4275,184.5048 C 964.8626,184.5048 967.9329,181.9547 970.2175,179.654 971.7821,178.0784 976.0237,172.4128 976.9781,171.7737 976.7573,174.4264 974.7501,176.9016 974.7501,180.0489 L 974.7501,181.0038 C 974.7501,182.7905 976.8543,184.5048 978.5695,184.5048 L 981.7523,184.5048 C 986.8437,184.5048 993.1961,177.3193 995.12,173.6834 994.9253,173.3926 994.6019,172.7285 994.1651,172.7285 992.8872,172.7285 990.2652,178.1393 987.4813,178.1393 987.0939,178.1393 986.5265,177.4809 986.5265,176.8661 L 986.5265,176.5479 C 986.5265,175.4615 991.8756,161.3072 992.6772,159.4642 993.8615,156.7413 994.6646,153.6879 995.7105,151.0394 996.6197,148.7367 998.3984,144.8138 998.941,142.5411 L 988.1413,142.8196 985.8899,147.9027 C 985.1595,144.7674 984.3694,141.8554 980.4792,141.8554 L 978.5695,141.8554 C 972.6196,141.8554 964.5829,149.9185 961.7532,153.6843 958.3267,158.2444 953.4254,166.5417 953.4254,174.3199 Z"
         style="fill-rule:evenodd;fill:#08397c;" />
      <path
         id="path52"
         d="M 911.7308,179.7306 L 907.8863,179.7216 917.4598,152.6769 921.2792,152.6769 C 926.4621,152.6769 930.5092,155.8581 930.5092,160.9522 930.5092,172.2585 923.3669,179.7306 911.7308,179.7306 Z M 927.4596,125.6713 L 930.191,125.6232 C 934.5602,125.6232 937.5114,128.5528 937.5114,132.9436 937.5114,141.1312 929.9095,149.1758 921.5974,149.1758 L 918.9713,149.1469 927.4596,125.6713 Z M 906.3201,124.0318 L 907.5932,124.0318 C 910.1079,124.0318 913.0039,125.0943 913.0039,127.5329 L 913.0039,128.4877 C 913.0039,130.3148 904.3454,153.7483 903.0426,157.0382 901.2182,161.6453 899.4718,166.5449 897.8676,171.2781 896.2045,176.1849 894.9569,181.322 888.4964,181.322 L 886.2798,181.3249 885.9502,182.9134 917.7781,182.9134 C 926.1337,182.9134 931.3286,182.0034 936.5524,178.7715 940.4034,176.3889 945.1502,170.6881 945.1502,164.4533 L 945.1502,164.135 C 945.1502,156.2672 937.3031,152.2758 930.8275,150.7672 932.2323,149.7912 941.1393,148.0273 944.7073,145.8685 947.9992,143.8767 952.1523,139.2686 952.1523,134.2167 L 952.1523,133.2619 C 952.1523,125.3218 943.9121,122.4404 935.6017,122.4404 L 907.2749,122.4404 C 906.2334,122.4404 906.3201,123.011 906.3201,124.0318 Z"
         style="fill-rule:evenodd;fill:#07387c;" />
      <path
         id="path54"
         d="M 1007.2363,144.5346 L 1006.5852,146.2496 1010.3974,146.6296 C 1010.8365,147.2854 1011.3522,147.4558 1011.3522,148.221 L 1011.3522,149.1758 C 1011.3522,150.8221 1006.1812,164.4506 1005.3058,166.3638 1004.6178,167.8678 999.0055,182.7546 998.9393,183.55 L 1010.0791,183.55 C 1011.3292,183.55 1013.6933,175.0985 1014.3395,173.4878 1016.0784,169.1532 1017.0885,167.8612 1019.4958,164.3215 1021.5379,161.3188 1030.513,150.4489 1034.2683,150.4489 L 1035.2232,150.4489 C 1036.0744,150.4489 1036.1646,150.9084 1036.4963,151.4038 1035.2365,156.8111 1026.6297,174.4355 1026.6297,177.821 L 1026.6297,180.0489 C 1026.6297,181.8467 1028.9738,183.8683 1030.7673,183.8683 L 1034.2683,183.8683 C 1038.1292,183.8683 1046.576,175.9125 1047.2905,172.7945 L 1045.4081,172.092 C 1044.6947,173.4403 1041.3487,177.821 1039.6791,177.821 1039.2424,177.821 1038.9189,177.1569 1038.7242,176.8661 1039.6333,172.9642 1042.522,166.4316 1044.135,162.8618 1045.574,159.6769 1048.9092,152.0505 1048.9092,147.9027 1048.9092,144.8683 1046.3914,141.8554 1043.4984,141.8554 1038.0223,141.8554 1032.4002,146.0842 1029.5709,148.9342 1027.6283,150.891 1020.668,159.3005 1019.5157,159.9556 L 1025.9931,141.8554 1024.0712,141.7806 1007.2363,144.5346 Z"
         style="fill-rule:evenodd;fill:#08397c;" />
      <path
         id="path56"
         d="M 1066.7328,124.0318 L 1066.4146,125.9415 1067.3694,125.9415 C 1069.1336,125.9415 1070.2339,126.3843 1070.2339,128.1694 L 1070.2339,129.4425 C 1070.2339,130.6276 1061.7357,152.7973 1060.551,156.3617 1059.2236,160.3556 1057.2138,166.1127 1055.5982,169.8692 1054.6839,171.9953 1050.9909,181.4828 1050.8189,183.55 L 1062.5952,183.55 C 1062.6347,181.7781 1065.736,174.6666 1066.4134,172.4091 1066.9492,170.623 1067.6318,168.4503 1069.012,167.369 1070.1675,166.4639 1072.0877,164.4898 1073.4167,164.135 1073.4167,166.1097 1074.5868,173.8062 1075.0639,176.1737 1075.7805,179.7293 1076.7065,184.1865 1081.0554,184.1865 1086.5934,184.1865 1092.6654,176.0155 1094.8121,172.0212 L 1093.4683,170.8188 C 1092.2162,171.7362 1090.4175,175.9113 1088.6942,175.9113 L 1088.3759,175.9113 C 1086.2014,175.9113 1083.6017,158.4484 1083.6017,154.9048 1085.6968,153.7962 1089.1831,150.4388 1091.7496,148.7303 1093.2629,147.7228 1094.4946,146.8598 1096.3317,146.3101 1098.5257,145.6537 1100.5946,145.7799 1100.7887,143.4468 L 1082.0217,143.4497 1081.692,145.0382 C 1083.2567,145.0382 1086.7845,145.6773 1086.7845,146.9479 1086.7845,149.7091 1072.2358,161.7316 1069.5737,163.4898 L 1084.5565,122.1221 1078.5092,122.1221 C 1075.1698,122.1221 1070.653,124.0318 1066.7328,124.0318 Z"
         style="fill-rule:evenodd;fill:#08397c;" />
      <path
         id="path58"
         d="M 761.1847,209.6489 L 761.1847,228.4274 C 764.2777,227.7068 777.0138,218.879 778.69,218.879 780.3442,218.879 792.6749,227.4372 795.5588,228.1091 L 795.5588,208.3758 779.3372,199.1276 761.1847,209.6489 Z"
         style="fill-rule:evenodd;fill:#bd9803;" />
      <path
         id="path60"
         d="M 728.0836,228.7457 L 728.0836,247.5242 744.9524,237.9758 744.9524,219.1973 728.0836,228.7457 Z"
         style="fill-rule:evenodd;fill:#bd9803;" />
      <path
         id="path62"
         d="M 811.1545,237.3392 L 829.2964,247.5242 829.2964,228.4274 811.1545,217.9242 811.1545,237.3392 Z"
         style="fill-rule:evenodd;fill:#bd9803;" />
      <path
         id="path64"
         d="M 728.0836,247.5242 L 728.0836,228.7457 728.0836,169.864 778.6729,142.1425 829.1844,171.0149 829.2964,228.4274 829.2964,247.5242 845.847,238.2941 845.847,162.2253 C 845.847,160.8118 816.1263,144.1197 812.6167,141.9846 809.6768,140.196 779.0475,122.1221 779.0083,122.1221 777.584,122.1221 749.1259,139.8142 745.4598,142.0445 740.767,144.8995 714.5129,161.5146 711.8513,162.2253 L 711.9261,238.1646 728.0836,247.5242 Z"
         style="fill-rule:evenodd;fill:#06377b;" />
      <path
         id="path66"
         d="M 761.1847,247.5242 L 760.8664,266.3026 761.4839,266.5912 778.3528,255.8295 795.5588,266.6209 795.5588,247.5242 C 792.7567,246.8713 780.2364,237.9758 778.69,237.9758 777.0138,237.9758 764.2777,246.8035 761.1847,247.5242 Z"
         style="fill-rule:evenodd;fill:#bd9803;" />
      <path
         id="path68"
         d="M 744.9524,219.1973 L 744.9524,237.9758 745.0452,256.9175 760.8664,266.3026 761.1847,247.5242 761.1847,228.4274 761.1847,209.6489 761.1847,190.5521 778.6612,179.6845 795.4786,190.0456 795.5588,208.3758 795.5588,228.1091 795.5588,247.5242 795.5588,266.6209 811.1545,257.0725 811.1545,237.3392 811.1545,217.9242 811.1545,181.0038 779.3469,161.238 745.0142,180.7942 744.9524,219.1973 Z"
         style="fill-rule:evenodd;fill:#06377b;" />
      <path
         id="path70"
         d="M 895.5908,237.0555 L 903.4555,237.021 C 907.856,237.021 918.4147,236.5355 918.4147,240.522 918.4147,247.0388 914.8021,246.8458 911.4125,249.1156 L 907.6024,249.515 890.9646,249.4046 895.5908,237.0555 Z M 904.5173,212.2337 L 920.3243,212.1952 C 921.9206,212.1952 924.462,212.6195 924.462,214.1048 L 924.462,215.6962 C 924.462,219.6171 920.2028,221.7435 916.1867,221.7435 L 901.102,221.6982 904.5173,212.2337 Z M 863.5316,265.9335 L 910.1394,265.9844 C 917.4462,265.9844 926.6885,261.7179 930.8872,258.4053 935.8348,254.5022 940.0577,248.0563 940.0577,239.2489 940.0577,236.3292 937.6831,230.5745 935.6017,230.0188 L 935.6017,229.0639 C 941.0545,227.7936 946.7415,218.3493 946.7415,210.922 946.7415,197.9552 935.6074,195.6446 922.5523,195.6446 L 889.2288,195.6797 863.5316,265.9335 Z"
         style="fill-rule:evenodd;fill:#06377b;" />
      <path
         id="path72"
         d="M 955.3351,213.15 L 977.8233,213.2247 958.8361,266.3026 980.7974,266.3026 C 980.8533,263.7928 988.7507,243.6598 990.1664,239.3877 991.6913,234.786 993.4648,230.6504 994.9811,226.0606 995.579,224.2511 999.0969,213.15 1000.2124,213.15 L 1021.0678,213.0952 1027.2662,195.6446 962.3372,195.6446 C 961.2816,195.6446 959.1734,202.6938 958.6448,204.0469 957.6386,206.6226 955.9652,210.7899 955.3351,213.15 Z"
         style="fill-rule:evenodd;fill:#06377b;" />
      <path
         id="path74"
         d="M 1008.2047,266.3155 L 1029.0449,266.2557 1043.4637,226.4303 1055.5931,266.3026 1075.7867,266.2378 1101.7436,195.6446 C 1095.5995,195.6446 1089.419,195.711 1083.2795,195.6408 1080.5326,195.6093 1081.1375,195.2417 1080.539,197.3561 1080.2066,198.53 1079.5355,199.9072 1079.2156,200.8069 1078.3231,203.3171 1077.6338,205.4106 1076.8024,207.9422 1075.3907,212.2408 1067.1078,233.2025 1067.0511,235.7478 L 1066.5442,235.7092 1054.6383,195.6446 1034.0662,195.6871 1008.2047,266.3155 Z"
         style="fill-rule:evenodd;fill:#06377b;" />
      <path
         id="path76"
         d="M 899.6362,313.408 C 900.8274,299.0935 969.0566,288.6112 988.4059,286.324 996.9359,285.3156 1005.9942,284.4357 1014.2865,283.2412 1022.5063,282.0572 1032.2262,280.9247 1040.3209,280.3122 1044.3485,280.0075 1049.7052,279.4552 1053.4449,278.7953 1057.628,278.0573 1062.1476,278.101 1066.3348,277.3627 1070.2523,276.6719 1075.1578,276.554 1079.1803,275.8856 1082.8994,275.2676 1088.1343,274.5779 1092.1952,274.5779 L 1092.1952,274.2597 C 1081.245,274.2597 1070.2762,274.1335 1060.0515,274.8987 1049.641,275.6778 1037.9738,274.3761 1027.9252,275.5552 1023.1068,276.1207 1016.7849,275.5814 1011.9663,276.1468 1007.4165,276.6807 1000.9818,276.4919 996.0748,276.4876 990.7429,276.4829 985.7891,277.1243 980.1609,277.1242 976.4349,277.124 968.0423,277.2781 964.6922,277.8877 961.97,278.3831 951.9359,278.7299 948.9682,278.7143 944.3929,278.6902 938.8382,279.801 934.0147,279.9929 928.9855,280.1931 923.7482,280.9927 919.021,281.5498 916.4221,281.8561 914.1469,281.9773 911.6046,282.4087 909.5367,282.7597 906.2664,283.3748 904.7237,283.4849 893.6671,284.2734 856.6684,292.1989 856.6684,300.9951 L 856.6684,301.9499 C 856.6684,311.2242 888.0142,313.408 899.6362,313.408 Z"
         style="fill-rule:evenodd;fill:#ee1e26;" />
    </g>
  </g>
  <g
     id="g82" />
  <g
     id="g84" />
</svg>
