<?xml version="1.0" encoding="UTF-8" standalone="no"?>
<!-- Created with Inkscape (http://www.inkscape.org/) -->
<svg xmlns:dc="http://purl.org/dc/elements/1.1/" xmlns:cc="http://creativecommons.org/ns#" xmlns:rdf="http://www.w3.org/1999/02/22-rdf-syntax-ns#" xmlns:svg="http://www.w3.org/2000/svg" xmlns="http://www.w3.org/2000/svg" xmlns:sodipodi="http://sodipodi.sourceforge.net/DTD/sodipodi-0.dtd" xmlns:inkscape="http://www.inkscape.org/namespaces/inkscape" width="637.13202" height="1000" viewBox="0 0 168.57451 264.58334" version="1.1" id="svg5028" sodipodi:docname="Bank Negara Indonesia 2004 Stacked.svg" inkscape:version="0.92.2 (5c3e80d, 2017-08-06)">
  <defs id="defs5022">
    <clipPath id="clipPath112" clipPathUnits="userSpaceOnUse">
      <path inkscape:connector-curvature="0" id="path114" d="M 0,0 H 595.276 V 841.89 H 0 Z"/>
    </clipPath>
    <clipPath id="clipPath78" clipPathUnits="userSpaceOnUse">
      <path inkscape:connector-curvature="0" id="path80" d="M 0,0 H 595.276 V 841.89 H 0 Z"/>
    </clipPath>
    <clipPath id="clipPath56" clipPathUnits="userSpaceOnUse">
      <path inkscape:connector-curvature="0" id="path58" d="M 0,0 H 595.276 V 841.89 H 0 Z"/>
    </clipPath>
    <clipPath id="clipPath40" clipPathUnits="userSpaceOnUse">
      <path inkscape:connector-curvature="0" id="path42" d="M 0,0 H 595.276 V 841.89 H 0 Z"/>
    </clipPath>
    <clipPath id="clipPath26" clipPathUnits="userSpaceOnUse">
      <path inkscape:connector-curvature="0" id="path28" d="M 0,0 H 595.276 V 841.89 H 0 Z"/>
    </clipPath>
  </defs>
  <sodipodi:namedview id="base" pagecolor="#ffffff" bordercolor="#666666" borderopacity="1.0" inkscape:pageopacity="0.0" inkscape:pageshadow="2" inkscape:zoom="0.24748737" inkscape:cx="69.938099" inkscape:cy="601.30559" inkscape:document-units="px" inkscape:current-layer="layer1" showgrid="false" units="px" inkscape:window-width="1366" inkscape:window-height="705" inkscape:window-x="-8" inkscape:window-y="-8" inkscape:window-maximized="1"/>
  <metadata id="metadata5025">
    <rdf:RDF>
      <cc:Work rdf:about="">
        <dc:format>image/svg+xml</dc:format>
        <dc:type rdf:resource="http://purl.org/dc/dcmitype/StillImage"/>
        <dc:title/>
      </cc:Work>
    </rdf:RDF>
  </metadata>
  <g inkscape:label="Layer 1" inkscape:groupmode="layer" id="layer1" transform="translate(0,-32.416667)">
    <path d="M 167.72743,199.9666 H 0.18570675 V 32.416665 H 167.72743 Z" style="fill:#ffffff;fill-opacity:1;fill-rule:nonzero;stroke:none;stroke-width:0.61210197" id="path176" inkscape:connector-curvature="0"/>
    <path inkscape:connector-curvature="0" id="path188" style="fill:#f15a22;fill-opacity:1;fill-rule:nonzero;stroke:none;stroke-width:4.108428" d="M 67.557794,145.50649 85.417128,131.09002 C 82.422085,127.33081 79.579044,123.53873 76.900347,119.6234 56.243174,89.734584 44.004163,59.328091 52.841398,32.417886 H 0.18367867 v 29.042472 z"/>
    <path inkscape:connector-curvature="0" id="path192" style="fill:#f15a22;fill-opacity:1;fill-rule:nonzero;stroke:none;stroke-width:4.108428" d="M 95.719409,102.07629 C 96.836898,92.58993 99.7128,74.6977 117.112,61.406958 132.17761,49.936228 151.03118,47.729987 167.72784,54.821131 V 32.417886 H 74.770537 c -6.133874,27.259412 9.979387,57.21397 20.948872,69.658404"/>
    <path inkscape:connector-curvature="0" id="path196" style="fill:#f15a22;fill-opacity:1;fill-rule:nonzero;stroke:none;stroke-width:4.108428" d="m 118.26893,74.738399 -0.0658,0.04915 c -17.49366,14.215168 -13.19214,36.523941 3.09366,56.527871 12.54304,15.43946 29.32597,26.2775 46.42935,18.06066 V 83.509756 C 152.36059,67.770366 133.91787,62.006255 118.26885,74.738261"/>
    <path inkscape:connector-curvature="0" id="path200" style="fill:#f15a22;fill-opacity:1;fill-rule:nonzero;stroke:none;stroke-width:4.108428" d="M 0.18446927,95.815882 V 199.94809 h 0.0247494 L 50.899013,158.94598 Z"/>
    <path inkscape:connector-curvature="0" id="path212" style="fill:#f15a22;fill-opacity:1;fill-rule:nonzero;stroke:none;stroke-width:4.108428" d="m 92.375554,139.34919 c -4.979399,4.09201 -11.129704,9.10016 -17.953812,14.6753 l 6.585809,8.20043 c 9.519219,11.90622 23.450899,32.53466 40.702189,26.95129 l 0.64091,0.78471 -12.25955,9.9876 h 57.63715 v -39.61349 c -29.65462,16.11326 -55.15155,1.44617 -75.352696,-20.98584"/>
    <path inkscape:connector-curvature="0" id="path216" style="fill:#f15a22;fill-opacity:1;fill-rule:nonzero;stroke:none;stroke-width:4.108428" d="m 64.559055,175.96882 -6.824108,-8.48803 C 43.745755,178.70915 29.06222,190.47978 17.14368,199.94971 H 81.633677 C 77.447189,191.06318 69.838369,182.55052 64.559055,175.96882"/>
    <path inkscape:connector-curvature="0" id="path220" style="fill:#006885;fill-opacity:1;fill-rule:nonzero;stroke:none;stroke-width:1.73919058" d="m 39.867466,251.69209 c 6.535897,-1.14265 10.789948,-6.78633 10.789948,-13.98833 0,-9.59684 -8.306376,-15.63706 -22.522524,-15.63706 H 0 v 0.32699 c 5.7480234,3.15141 5.6158545,8.23853 5.6158545,13.09783 v 43.96675 c 0,4.94279 0.1321689,10.08209 -5.6158545,13.18306 v 0.32001 h 13.548308 c 13.235228,0 23.386899,0.22609 30.962806,-3.33576 8.048965,-3.78273 12.925671,-10.57082 12.925671,-18.84761 0,-10.56386 -7.859409,-17.04408 -17.569319,-19.08588 m -23.21819,-23.08604 8.90466,0.14609 c 6.603718,0 13.355245,3.23317 13.355245,10.66995 0,8.83682 -5.975856,11.19864 -14.489199,11.19864 l -7.770706,0.0103 v -0.0103 z m 8.5829,57.06983 -8.5829,0.0138 v -27.95228 -0.39652 l 9.228138,-0.0418 c 10.739505,0 19.60417,3.98796 19.60417,14.44396 0,10.23862 -9.306408,13.93442 -20.249408,13.93442"/>
    <path inkscape:connector-curvature="0" id="path224" style="fill:#006885;fill-opacity:1;fill-rule:nonzero;stroke:none;stroke-width:1.73919058" d="m 79.006748,279.46191 c 0,6.0489 -0.109654,10.34296 5.603668,13.70134 v 0.30437 H 65.538445 v -0.30437 c 5.706293,-3.35838 5.607158,-7.65244 5.607158,-13.70134 v -43.08149 c 0,-6.00368 0.099,-10.76386 -5.600214,-13.98135 v -0.3322 h 15.831874 v 0.10622 c 0.420878,1.28527 1.121768,2.00704 1.610484,2.70271 0.507845,0.67133 1.506141,2.14442 1.506141,2.14442 l 36.317772,48.94779 v -40.00666 c 0,-6.03151 0.0939,-10.3447 -5.60018,-13.5622 v -0.33219 h 18.95718 v 0.33219 c -5.59846,3.2175 -5.59846,7.53069 -5.59846,13.5622 V 297 c -3.46272,-1.37397 -13.11698,-9.4125 -19.99201,-18.66153 C 96.236913,261.764 79.006748,238.71276 79.006748,238.71276 Z"/>
    <path inkscape:connector-curvature="0" id="path228" style="fill:#006885;fill-opacity:1;fill-rule:nonzero;stroke:none;stroke-width:1.73919058" d="m 151.85222,234.91828 c 0,-4.95496 -0.0852,-9.3725 -5.59148,-12.51868 v -0.33393 h 22.31382 v 0.33393 c -5.5289,3.05052 -5.57759,7.66112 -5.57759,12.51868 v 45.31463 c 0,4.8419 -0.12873,9.7499 5.57759,12.90654 v 0.32 h -22.31382 v -0.32 c 5.73933,-3.20186 5.59148,-8.02289 5.59148,-12.87698 z"/>
  </g>
</svg>