<svg width="48" height="48" viewBox="0 0 48 48" fill="none" xmlns="http://www.w3.org/2000/svg">
<rect x="13" y="13" width="22" height="22" fill="white"/>
<path d="M24 44.0001C21.3728 44.0027 18.7709 43.4872 16.3432 42.483C13.9155 41.4788 11.7097 40.0058 9.85199 38.1481C7.9943 36.2904 6.52121 34.0845 5.51705 31.6568C4.51288 29.2291 3.99736 26.6272 3.99999 24.0001V23.6001C4.08001 19.6789 5.31058 15.8677 7.53877 12.6401C9.76695 9.41253 12.8945 6.91092 16.5327 5.44617C20.1709 3.98143 24.1594 3.61814 28.0023 4.40146C31.8453 5.18478 35.3733 7.08017 38.148 9.85205C40.9474 12.6491 42.8541 16.2139 43.6268 20.095C44.3995 23.9762 44.0034 27.9993 42.4887 31.6553C40.9739 35.3113 38.4087 38.4357 35.1175 40.6332C31.8264 42.8307 27.9573 44.0024 24 44.0001ZM24 26.8201L29.18 32.0001L32 29.1801L26.82 24.0001L32 18.8201L29.18 16.0001L24 21.1801L18.82 16.0001L16 18.8201L21.18 24.0001L16 29.1801L18.82 32.0001L24 26.8221V26.8201Z" fill="#6F5F90"/>
</svg>
