<svg width="25" height="24" viewBox="0 0 25 24" fill="none" xmlns="http://www.w3.org/2000/svg">
<path d="M6.83331 2L3.83331 6V20C3.83331 20.5304 4.04403 21.0391 4.4191 21.4142C4.79417 21.7893 5.30288 22 5.83331 22H19.8333C20.3637 22 20.8725 21.7893 21.2475 21.4142C21.6226 21.0391 21.8333 20.5304 21.8333 20V6L18.8333 2H6.83331Z" fill="#6F5F90" stroke="#6F5F90" stroke-width="2" stroke-linecap="round" stroke-linejoin="round"/>
<path d="M3.83331 6H21.8333" stroke="white" stroke-width="2" stroke-linecap="round" stroke-linejoin="round"/>
<path d="M16.8333 10C16.8333 11.0609 16.4119 12.0783 15.6617 12.8284C14.9116 13.5786 13.8942 14 12.8333 14C11.7724 14 10.755 13.5786 10.0049 12.8284C9.25474 12.0783 8.83331 11.0609 8.83331 10" stroke="white" stroke-width="2" stroke-linecap="round" stroke-linejoin="round"/>
</svg>
