<svg width="48" height="48" viewBox="0 0 48 48" fill="none" xmlns="http://www.w3.org/2000/svg">
<path d="M14 34.0261L22.826 33.996L42.09 14.916C42.846 14.16 43.262 13.156 43.262 12.088C43.262 11.02 42.846 10.016 42.09 9.26005L38.918 6.08805C37.406 4.57605 34.768 4.58405 33.268 6.08205L14 25.166V34.0261V34.0261ZM36.09 8.91605L39.268 12.082L36.074 15.246L32.902 12.076L36.09 8.91605ZM18 26.834L30.06 14.888L33.232 18.06L21.174 30.0021L18 30.012V26.834Z" fill="#6F5F90"/>
<path d="M10 42H38C40.206 42 42 40.206 42 38V20.664L38 24.664V38H16.316C16.264 38 16.21 38.02 16.158 38.02C16.092 38.02 16.026 38.002 15.958 38H10V10H23.694L27.694 6H10C7.794 6 6 7.794 6 10V38C6 40.206 7.794 42 10 42Z" fill="#6F5F90"/>
</svg>
