<svg width="48" height="48" viewBox="0 0 48 48" fill="none" xmlns="http://www.w3.org/2000/svg">
<g clip-path="url(#clip0)">
<path d="M18.006 16.5C18.006 17.6935 17.5319 18.8381 16.688 19.682C15.8441 20.5259 14.6995 21 13.506 21C12.3125 21 11.1679 20.5259 10.324 19.682C9.48012 18.8381 9.00601 17.6935 9.00601 16.5C9.00601 15.3065 9.48012 14.1619 10.324 13.318C11.1679 12.4741 12.3125 12 13.506 12C14.6995 12 15.8441 12.4741 16.688 13.318C17.5319 14.1619 18.006 15.3065 18.006 16.5V16.5Z" fill="#6F5F90"/>
<path d="M4.5 6C3.30653 6 2.16193 6.47411 1.31802 7.31802C0.474106 8.16193 0 9.30653 0 10.5L0 37.5C0 38.6935 0.474106 39.8381 1.31802 40.682C2.16193 41.5259 3.30653 42 4.5 42H43.5C44.6935 42 45.8381 41.5259 46.682 40.682C47.5259 39.8381 48 38.6935 48 37.5V10.5C48 9.30653 47.5259 8.16193 46.682 7.31802C45.8381 6.47411 44.6935 6 43.5 6H4.5ZM43.5 9C43.8978 9 44.2794 9.15804 44.5607 9.43934C44.842 9.72064 45 10.1022 45 10.5V28.5L33.675 22.659C33.3937 22.5181 33.0751 22.4692 32.7645 22.5193C32.4538 22.5693 32.1668 22.7158 31.944 22.938L20.814 34.068L12.834 28.752C12.5459 28.5602 12.2003 28.4739 11.8558 28.5078C11.5113 28.5417 11.1892 28.6937 10.944 28.938L3.006 36V37.62C3.00241 37.5801 3.00041 37.5401 3 37.5V10.5C3 10.1022 3.15804 9.72064 3.43934 9.43934C3.72064 9.15804 4.10218 9 4.5 9H43.5Z" fill="#6F5F90"/>
</g>
<defs>
<clipPath id="clip0">
<rect width="48" height="48" fill="white"/>
</clipPath>
</defs>
</svg>
