<svg width="40" height="40" viewBox="0 0 40 40" fill="none" xmlns="http://www.w3.org/2000/svg">
<path d="M0 20C0 8.95431 8.95431 0 20 0V0C31.0457 0 40 8.95431 40 20V20C40 31.0457 31.0457 40 20 40V40C8.95431 40 0 31.0457 0 20V20Z" fill="white"/>
<path d="M28.84 12.61C28.3292 12.099 27.7228 11.6936 27.0554 11.4171C26.3879 11.1405 25.6725 10.9982 24.95 10.9982C24.2275 10.9982 23.5121 11.1405 22.8446 11.4171C22.1772 11.6936 21.5708 12.099 21.06 12.61L20 13.67L18.94 12.61C17.9083 11.5783 16.509 10.9987 15.05 10.9987C13.591 10.9987 12.1917 11.5783 11.16 12.61C10.1283 13.6417 9.54871 15.041 9.54871 16.5C9.54871 17.959 10.1283 19.3583 11.16 20.39L12.22 21.45L20 29.23L27.78 21.45L28.84 20.39C29.351 19.8792 29.7563 19.2728 30.0329 18.6053C30.3095 17.9379 30.4518 17.2225 30.4518 16.5C30.4518 15.7775 30.3095 15.0621 30.0329 14.3946C29.7563 13.7272 29.351 13.1208 28.84 12.61V12.61Z" fill="#E62129"/>
</svg>
