<svg width="48" height="48" viewBox="0 0 48 48" fill="none" xmlns="http://www.w3.org/2000/svg">
<path d="M18 23.5C17.337 23.5 16.7011 23.7634 16.2322 24.2322C15.7634 24.7011 15.5 25.337 15.5 26C15.5 26.663 15.7634 27.2989 16.2322 27.7678C16.7011 28.2366 17.337 28.5 18 28.5C18.3283 28.5 18.6534 28.4353 18.9567 28.3097C19.26 28.1841 19.5356 27.9999 19.7678 27.7678C19.9999 27.5356 20.1841 27.26 20.3097 26.9567C20.4353 26.6534 20.5 26.3283 20.5 26C20.5 25.6717 20.4353 25.3466 20.3097 25.0433C20.1841 24.74 19.9999 24.4644 19.7678 24.2322C19.5356 24.0001 19.26 23.8159 18.9567 23.6903C18.6534 23.5647 18.3283 23.5 18 23.5ZM30 23.5C29.337 23.5 28.7011 23.7634 28.2322 24.2322C27.7634 24.7011 27.5 25.337 27.5 26C27.5 26.663 27.7634 27.2989 28.2322 27.7678C28.7011 28.2366 29.337 28.5 30 28.5C30.663 28.5 31.2989 28.2366 31.7678 27.7678C32.2366 27.2989 32.5 26.663 32.5 26C32.5 25.337 32.2366 24.7011 31.7678 24.2322C31.2989 23.7634 30.663 23.5 30 23.5ZM24 4C21.3736 4 18.7728 4.51732 16.3463 5.52241C13.9198 6.5275 11.715 8.00069 9.85786 9.85786C6.10714 13.6086 4 18.6957 4 24C4 29.3043 6.10714 34.3914 9.85786 38.1421C11.715 39.9993 13.9198 41.4725 16.3463 42.4776C18.7728 43.4827 21.3736 44 24 44C29.3043 44 34.3914 41.8929 38.1421 38.1421C41.8929 34.3914 44 29.3043 44 24C44 21.3736 43.4827 18.7728 42.4776 16.3463C41.4725 13.9198 39.9993 11.715 38.1421 9.85786C36.285 8.00069 34.0802 6.5275 31.6537 5.52241C29.2272 4.51732 26.6264 4 24 4V4ZM24 40C15.18 40 8 32.82 8 24C8 23.42 8 22.84 8.1 22.28C12.82 20.18 16.56 16.32 18.52 11.54C20.8065 14.7848 24.0091 17.2736 27.718 18.688C31.4269 20.1025 35.4735 20.3782 39.34 19.48C39.76 20.9 40 22.42 40 24C40 32.82 32.82 40 24 40Z" fill="#6F5F90"/>
</svg>
