<svg width="32" height="32" viewBox="0 0 32 32" fill="none" xmlns="http://www.w3.org/2000/svg">
<path d="M8 18H14V20H8V18Z" fill="#6F5F90"/>
<path d="M8 22H18V24H8V22Z" fill="#6F5F90"/>
<path d="M26 4H6C5.46973 4.00053 4.96133 4.21141 4.58637 4.58637C4.21141 4.96133 4.00053 5.46973 4 6V26C4.00053 26.5303 4.21141 27.0387 4.58637 27.4136C4.96133 27.7886 5.46973 27.9995 6 28H26C26.5303 27.9995 27.0387 27.7886 27.4136 27.4136C27.7886 27.0387 27.9995 26.5303 28 26V6C27.9995 5.46973 27.7886 4.96133 27.4136 4.58637C27.0387 4.21141 26.5303 4.00053 26 4V4ZM18 6V10H14V6H18ZM6 26V6H12V12H20V6H26L26.001 26H6Z" fill="#6F5F90"/>
</svg>
