<svg width="40" height="40" viewBox="0 0 40 40" fill="none" xmlns="http://www.w3.org/2000/svg">
<path d="M0 20C0 8.95431 8.95431 0 20 0C31.0457 0 40 8.95431 40 20C40 31.0457 31.0457 40 20 40C8.95431 40 0 31.0457 0 20Z" fill="#6F5F90"/>
<path d="M11 14H29" stroke="#A6A7A6" stroke-width="2" stroke-linecap="round" stroke-linejoin="round"/>
<path d="M16 14V12C16 11.4696 16.2107 10.9609 16.5858 10.5858C16.9609 10.2107 17.4696 10 18 10H22C22.5304 10 23.0391 10.2107 23.4142 10.5858C23.7893 10.9609 24 11.4696 24 12V14M27 14V28C27 28.5304 26.7893 29.0391 26.4142 29.4142C26.0391 29.7893 25.5304 30 25 30H15C14.4696 30 13.9609 29.7893 13.5858 29.4142C13.2107 29.0391 13 28.5304 13 28V14H27Z" stroke="#A6A7A6" stroke-width="2" stroke-linecap="round" stroke-linejoin="round"/>
<path d="M18 19V25" stroke="#A6A7A6" stroke-width="2" stroke-linecap="round" stroke-linejoin="round"/>
<path d="M22 19V25" stroke="#A6A7A6" stroke-width="2" stroke-linecap="round" stroke-linejoin="round"/>
</svg>
