<svg width="25" height="24" viewBox="0 0 25 24" fill="#6F5F90" xmlns="http://www.w3.org/2000/svg">
<g clip-path="url(#clip0)">
<path d="M21.5067 4.61012C20.9959 4.09912 20.3895 3.69376 19.722 3.4172C19.0546 3.14064 18.3392 2.99829 17.6167 2.99829C16.8942 2.99829 16.1788 3.14064 15.5113 3.4172C14.8439 3.69376 14.2374 4.09912 13.7267 4.61012L12.6667 5.67012L11.6067 4.61012C10.575 3.57842 9.17572 2.99883 7.71668 2.99883C6.25765 2.99883 4.85838 3.57842 3.82668 4.61012C2.79499 5.64181 2.21539 7.04108 2.21539 8.50012C2.21539 9.95915 2.79499 11.3584 3.82668 12.3901L4.88668 13.4501L12.6667 21.2301L20.4467 13.4501L21.5067 12.3901C22.0177 11.8794 22.423 11.2729 22.6996 10.6055C22.9762 9.93801 23.1185 9.2226 23.1185 8.50012C23.1185 7.77763 22.9762 7.06222 22.6996 6.39476C22.423 5.7273 22.0177 5.12087 21.5067 4.61012Z" fill="#6F5F90" stroke="#6F5F90" stroke-width="2" stroke-linecap="round" stroke-linejoin="round"/>
</g>
<defs>
<clipPath id="clip0">
<rect width="24" height="24" fill="white" transform="translate(0.666687)"/>
</clipPath>
</defs>
</svg>
