<svg width="25" height="24" viewBox="0 0 25 24" fill="none" xmlns="http://www.w3.org/2000/svg">
<g clip-path="url(#clip0)">
<path d="M21.5067 4.60999C20.9959 4.099 20.3895 3.69364 19.722 3.41708C19.0546 3.14052 18.3392 2.99817 17.6167 2.99817C16.8942 2.99817 16.1788 3.14052 15.5113 3.41708C14.8439 3.69364 14.2374 4.099 13.7267 4.60999L12.6667 5.66999L11.6067 4.60999C10.575 3.5783 9.17572 2.9987 7.71668 2.9987C6.25765 2.9987 4.85838 3.5783 3.82668 4.60999C2.79499 5.64169 2.21539 7.04096 2.21539 8.49999C2.21539 9.95903 2.79499 11.3583 3.82668 12.39L4.88668 13.45L12.6667 21.23L20.4467 13.45L21.5067 12.39C22.0177 11.8792 22.423 11.2728 22.6996 10.6053C22.9762 9.93789 23.1185 9.22248 23.1185 8.49999C23.1185 7.77751 22.9762 7.0621 22.6996 6.39464C22.423 5.72718 22.0177 5.12075 21.5067 4.60999V4.60999Z" stroke="#A6A7A6" stroke-width="2" stroke-linecap="round" stroke-linejoin="round"/>
</g>
<defs>
<clipPath id="clip0">
<rect width="24" height="24" fill="white" transform="translate(0.666687)"/>
</clipPath>
</defs>
</svg>
