<svg width="48" height="48" viewBox="0 0 48 48" fill="none" xmlns="http://www.w3.org/2000/svg">
<path d="M27.5 26C27.5 25.337 27.7634 24.7011 28.2322 24.2322C28.7011 23.7634 29.337 23.5 30 23.5C30.663 23.5 31.2989 23.7634 31.7678 24.2322C32.2366 24.7011 32.5 25.337 32.5 26C32.5 26.663 32.2366 27.2989 31.7678 27.7678C31.2989 28.2366 30.663 28.5 30 28.5C29.337 28.5 28.7011 28.2366 28.2322 27.7678C27.7634 27.2989 27.5 26.663 27.5 26ZM44 24V44H4V24C4 13 13 4 24 4C35 4 44 13 44 24ZM8 24C8 32.82 15.18 40 24 40C32.82 40 40 32.82 40 24C40 22.42 39.76 20.9 39.34 19.48C35.4735 20.3782 31.4269 20.1025 27.718 18.688C24.0091 17.2736 20.8065 14.7848 18.52 11.54C16.56 16.32 12.82 20.18 8.1 22.28C8 22.84 8 23.42 8 24ZM18 28.5C18.663 28.5 19.2989 28.2366 19.7678 27.7678C20.2366 27.2989 20.5 26.663 20.5 26C20.5 25.337 20.2366 24.7011 19.7678 24.2322C19.2989 23.7634 18.663 23.5 18 23.5C17.337 23.5 16.7011 23.7634 16.2322 24.2322C15.7634 24.7011 15.5 25.337 15.5 26C15.5 26.663 15.7634 27.2989 16.2322 27.7678C16.7011 28.2366 17.337 28.5 18 28.5Z" fill="#6F5F90"/>
</svg>
