<svg width="333" height="363" viewBox="0 0 333 363" fill="none" xmlns="http://www.w3.org/2000/svg">
<g clip-path="url(#clip0)">
<rect width="344" height="363" fill="white"/>
<path d="M20.0083 331.867C23.3696 343.519 33.1839 351.676 43.4215 358.604C44.851 359.572 46.2809 360.518 47.7112 361.441C47.7209 361.445 47.7309 361.454 47.7407 361.458C47.8095 361.502 47.8785 361.547 47.9426 361.591C48.2378 361.781 48.5331 361.972 48.8259 362.16L48.6651 362.232C48.6651 362.232 48.5072 362.316 48.6799 362.245C48.7313 362.224 48.7852 362.204 48.8365 362.183C54.7839 359.786 60.837 357.212 65.3948 352.722C70.1228 348.059 72.8858 340.746 70.3257 334.62C69.9891 333.817 69.5641 333.055 69.0584 332.347C68.8507 332.05 68.627 331.766 68.3942 331.487C66.9819 329.764 65.1362 328.449 63.0466 327.676C60.957 326.903 58.699 326.7 56.5048 327.087C54.3106 327.475 52.2594 328.44 50.5622 329.883C48.8649 331.326 47.5828 333.194 46.8477 335.296C46.0955 328.298 51.87 322.436 57.427 318.111C62.9865 313.788 69.3037 309.081 70.3785 302.122C70.9787 298.25 69.6313 294.497 67.1768 291.485C67.1008 291.394 67.025 291.302 66.9467 291.213C63.9589 287.705 59.7566 285.452 55.1792 284.905C46.6544 284.019 38.3739 288.529 32.1809 294.451C22.2132 303.981 16.1873 318.618 20.0083 331.867Z" fill="#F2F2F2"/>
<path d="M36.0318 316.626C34.3957 319.169 33.1396 321.938 32.3031 324.844C31.5957 327.441 31.2809 330.129 31.369 332.819C31.5972 338.355 33.1524 343.756 35.9039 348.566C37.9765 352.215 40.5024 355.588 43.4215 358.604C44.851 359.572 46.2808 360.517 47.7112 361.44C47.7209 361.445 47.7309 361.454 47.7407 361.458C47.8095 361.502 47.8785 361.547 47.9426 361.591C48.2378 361.781 48.5331 361.971 48.8259 362.159C48.8259 362.159 48.5071 362.316 48.6799 362.245C48.7313 362.224 48.7852 362.204 48.8365 362.183C48.3034 357.816 48.8256 353.384 50.3593 349.26C51.893 345.137 54.3935 341.44 57.6512 338.481C60.9168 335.566 64.8254 333.465 69.0583 332.347C68.8507 332.05 68.627 331.765 68.3941 331.487C66.7593 331.945 65.1682 332.546 63.6394 333.285C58.1745 335.907 53.6998 340.218 50.8775 345.58C48.345 350.448 47.255 355.938 47.7356 361.404C47.4912 361.182 47.2466 360.956 47.0093 360.732C42.4899 356.522 38.4758 351.689 35.7592 346.111C33.4023 341.388 32.244 336.158 32.3861 330.882C32.6079 325.129 34.9017 319.8 38.2229 315.161C41.8629 310.212 46.1631 305.783 51.0038 301.998C55.8823 298.093 61.2205 294.8 66.8996 292.191C67.0277 292.132 67.1279 292.025 67.1795 291.894C67.2311 291.762 67.2301 291.616 67.1768 291.485C67.1389 291.368 67.0562 291.27 66.9467 291.213C66.8903 291.189 66.8292 291.177 66.7678 291.18C66.7065 291.183 66.6465 291.199 66.5924 291.228C65.8913 291.551 65.195 291.878 64.5042 292.219C58.7512 295.06 53.3737 298.605 48.4952 302.771C43.783 306.786 39.3466 311.373 36.0318 316.626Z" fill="white"/>
<path d="M134.81 154.24C144.42 148.991 147.814 136.697 142.39 126.782C136.966 116.867 124.778 113.085 115.168 118.334C105.557 123.584 102.164 135.878 107.588 145.793C113.012 155.708 125.199 159.49 134.81 154.24Z" fill="#2F2E41"/>
<path d="M124.989 157.873C134.013 157.873 141.329 150.562 141.329 141.544C141.329 132.526 134.013 125.215 124.989 125.215C115.964 125.215 108.648 132.526 108.648 141.544C108.648 150.562 115.964 157.873 124.989 157.873Z" fill="#FFB8B8"/>
<path d="M116.227 166.521L114.126 172.461L117.217 190.337L129.955 200.914L140.07 185.283L135.2 170.495L131.547 166.377C131.583 166.007 131.542 165.633 131.426 165.28C131.311 164.926 131.123 164.6 130.876 164.322C130.629 164.045 130.326 163.821 129.988 163.665C129.65 163.51 129.284 163.426 128.911 163.419L120.934 163.263C119.906 163.243 118.899 163.547 118.054 164.132C117.209 164.717 116.57 165.553 116.227 166.521Z" fill="#CCCCCC"/>
<path d="M150.078 354.821L158.235 354.819L159.361 323.381L150.076 323.382L150.078 354.821Z" fill="#FFB8B8"/>
<path d="M173.966 362.387L148.331 362.389L148.33 352.492L164.061 352.49C166.688 352.49 169.207 353.533 171.065 355.388C172.922 357.244 173.966 359.762 173.966 362.387L173.966 362.387Z" fill="#2F2E41"/>
<path d="M92.9394 354.821L101.096 354.819L104.975 323.381L92.9367 323.382L92.9394 354.821Z" fill="#FFB8B8"/>
<path d="M116.827 362.387L91.1922 362.389L91.1914 352.492L106.922 352.49C109.549 352.49 112.068 353.533 113.926 355.388C115.783 357.244 116.827 359.762 116.827 362.387L116.827 362.387Z" fill="#2F2E41"/>
<path d="M164.657 134.035C165.494 134.541 166.21 135.224 166.754 136.036C167.298 136.848 167.657 137.77 167.806 138.736C167.956 139.702 167.891 140.689 167.617 141.627C167.344 142.565 166.867 143.432 166.222 144.167L172.968 157.876L165.631 164.005L156.376 144.511C155.213 143.345 154.518 141.795 154.423 140.152C154.328 138.509 154.84 136.888 155.86 135.597C156.881 134.306 158.34 133.434 159.962 133.146C161.583 132.858 163.254 133.174 164.657 134.035H164.657Z" fill="#FFB8B8"/>
<path d="M116.025 241.388C112.049 241.337 108.08 241.044 104.139 240.512C103.464 240.427 102.816 240.199 102.238 239.842C101.659 239.485 101.164 239.009 100.785 238.445C100.407 237.881 100.154 237.242 100.043 236.572C99.9328 235.902 99.9675 235.216 100.145 234.56L108.974 201.89L101.864 181.955C101.098 179.802 101.184 177.438 102.104 175.347C103.024 173.255 104.709 171.594 106.815 170.702L116.582 166.576L119.517 184.735L126.511 193.547C126.743 193.839 127.044 194.07 127.387 194.219C127.73 194.368 128.104 194.43 128.476 194.399C128.849 194.369 129.208 194.248 129.523 194.046C129.837 193.844 130.097 193.568 130.279 193.241L135.59 183.729L131.251 166.249L137.719 167.013C139.807 167.267 141.782 168.102 143.419 169.422C145.055 170.743 146.287 172.496 146.975 174.483C148.963 180.259 149.136 186.504 147.472 192.382L144.792 201.897L149.498 232.294C149.627 233.123 149.586 233.968 149.378 234.78C149.17 235.592 148.799 236.354 148.288 237.018C147.776 237.683 147.135 238.237 146.404 238.647C145.672 239.056 144.865 239.313 144.03 239.402C141.023 239.748 137.995 239.875 134.969 239.781C132.224 239.664 130.295 237.991 129.393 234.943C129.344 234.764 129.238 234.607 129.091 234.494C128.944 234.382 128.764 234.32 128.579 234.319C128.394 234.318 128.213 234.378 128.065 234.489C127.917 234.6 127.809 234.756 127.758 234.934C127.508 235.819 127.233 236.805 126.934 237.892C126.206 240.529 121.653 241.388 116.025 241.388Z" fill="#2F2E41"/>
<path d="M144.405 182.417C143.594 182.419 142.791 182.261 142.042 181.951C141.162 181.586 140.385 181.012 139.78 180.277C139.174 179.542 138.759 178.67 138.57 177.737C138.285 176.257 138.483 174.725 139.136 173.367C139.789 172.009 140.861 170.896 142.195 170.193L161.254 159.852L160.211 155.734C160.067 155.102 160.111 154.442 160.339 153.835C160.567 153.228 160.968 152.702 161.492 152.321L166.406 148.673C166.78 148.386 167.213 148.187 167.673 148.09C168.133 147.993 168.61 148 169.067 148.111C169.47 148.212 169.846 148.402 170.166 148.667C170.486 148.932 170.742 149.266 170.917 149.643L173.47 155.151C175.49 159.51 173.763 164.877 169.452 167.637L148.076 181.32C146.982 182.029 145.708 182.409 144.405 182.417Z" fill="#2F2E41"/>
<path d="M104.251 340.206C104.185 340.206 104.118 340.203 104.051 340.199L93.6664 339.782C93.2637 339.757 92.8701 339.651 92.5095 339.47C92.1488 339.289 91.8285 339.037 91.5678 338.729C91.307 338.421 91.1113 338.064 90.9922 337.679C90.8732 337.294 90.8333 336.888 90.8751 336.487L101.415 235.159L129.076 225.107L145.365 234.319L163.186 332.501C163.326 333.253 163.173 334.029 162.758 334.671C162.343 335.313 161.699 335.773 160.956 335.955L160.913 335.966L150.282 335.705C149.549 335.87 148.781 335.756 148.129 335.383C147.477 335.01 146.988 334.407 146.759 333.692L124.119 254.302C124.051 254.094 123.917 253.915 123.738 253.791C123.558 253.667 123.343 253.606 123.125 253.616C122.907 253.626 122.698 253.707 122.531 253.847C122.363 253.987 122.246 254.178 122.198 254.391L107.168 337.863C107.022 338.527 106.654 339.122 106.123 339.548C105.592 339.974 104.932 340.206 104.251 340.206Z" fill="#2F2E41"/>
<path d="M110.717 131.236C108.117 134.636 110.096 140.425 114.234 141.526C118.372 142.628 122.969 138.589 122.407 134.347C121.514 138.798 125.326 143.456 129.851 143.851C134.377 144.247 138.777 140.704 139.767 136.274C140.757 131.843 138.548 127.003 134.786 124.458C131.024 121.912 125.987 121.582 121.731 123.169C117.386 124.793 113.574 127.584 110.717 131.236Z" fill="#2F2E41"/>
<path d="M130.415 116.72C127.995 111.644 125.508 106.47 121.595 102.429C117.683 98.3874 112.024 95.6039 106.478 96.5569C100.933 97.51 96.1575 103.103 97.3858 108.59C98.0097 111.377 95.6214 114.139 92.8684 114.907C90.1155 115.675 87.1815 114.957 84.46 114.084C81.7384 113.212 78.9814 112.17 76.1259 112.293C70.4001 112.539 65.613 117.955 65.4118 123.678C65.2107 129.402 69.1068 134.85 74.3341 137.198C79.5613 139.546 85.814 139.019 90.97 136.519C96.126 134.019 100.249 129.708 103.263 124.837C107.718 117.64 118.912 115.865 125.378 121.33C126.07 121.874 126.942 122.136 127.819 122.066C128.697 121.996 129.516 121.598 130.113 120.951C131.256 119.618 131.09 117.369 130.415 116.72Z" fill="#2F2E41"/>
<path d="M229 97L224.939 93.3152C210.52 79.9973 201 71.3534 201 60.5858C201 51.8007 207.72 45 216.4 45C218.804 45.0129 221.176 45.5519 223.352 46.5795C225.527 47.6072 227.455 49.0989 229 50.9512C230.545 49.0989 232.473 47.6072 234.648 46.5795C236.824 45.5518 239.196 45.0128 241.6 45C250.28 45 257 51.8008 257 60.5858C257 71.3536 247.48 79.9975 233.061 93.3152L229 97Z" fill="#6F5F90"/>
<path d="M162.301 121.883C161.919 121.751 161.587 121.503 161.354 121.174C161.121 120.844 160.997 120.451 161 120.048V35.4579C161.001 34.276 161.474 33.1429 162.315 32.3072C163.155 31.4715 164.295 31.0014 165.484 31H293.516C294.705 31.0014 295.845 31.4715 296.685 32.3072C297.526 33.1429 297.999 34.276 298 35.4579V106.784C297.999 107.965 297.526 109.098 296.685 109.934C295.845 110.77 294.705 111.24 293.516 111.241H172.74L164.477 121.282C164.295 121.506 164.066 121.687 163.805 121.811C163.545 121.935 163.26 122 162.971 122C162.742 122 162.516 121.96 162.301 121.883ZM165.484 31.9906C164.559 31.9917 163.673 32.3573 163.019 33.0073C162.365 33.6573 161.997 34.5386 161.996 35.4579V120.048C161.996 120.246 162.058 120.439 162.172 120.6C162.287 120.762 162.449 120.884 162.636 120.951C162.823 121.017 163.026 121.024 163.218 120.971C163.41 120.918 163.58 120.808 163.706 120.655L172.267 110.251H293.516C294.441 110.25 295.327 109.884 295.981 109.234C296.635 108.584 297.003 107.703 297.004 106.784V35.4579C297.003 34.5386 296.635 33.6573 295.981 33.0073C295.327 32.3573 294.441 31.9917 293.516 31.9906H165.484Z" fill="#3F3D56"/>
<path d="M112.357 225.614L111.201 222.93C107.15 213.288 104.442 206.993 106.83 201.797C107.697 199.821 109.314 198.269 111.325 197.484C113.336 196.699 115.577 196.745 117.554 197.611C117.627 197.642 117.698 197.675 117.769 197.709C118.934 198.251 119.967 199.04 120.796 200.021C121.625 201.002 122.231 202.152 122.571 203.39C123.732 202.841 125 202.551 126.285 202.54C127.57 202.529 128.842 202.798 130.012 203.328C130.989 203.762 131.87 204.385 132.606 205.16C133.342 205.935 133.918 206.847 134.301 207.845C134.684 208.842 134.866 209.905 134.838 210.973C134.81 212.041 134.571 213.093 134.136 214.069C134.104 214.141 134.071 214.212 134.037 214.283C131.649 219.48 125.106 221.529 115.147 224.741L112.357 225.614Z" fill="#6F5F90"/>
<path d="M116.809 212.431C116.498 211.504 115.987 210.657 115.313 209.949C114.639 209.241 113.817 208.689 112.907 208.333C111.996 207.976 111.018 207.824 110.042 207.886C109.066 207.948 108.115 208.223 107.257 208.692L95.2989 199.715L92.4122 207.927L104.771 218.218C105.654 219.606 107.017 220.623 108.601 221.074C110.184 221.526 111.878 221.381 113.362 220.668C114.846 219.954 116.017 218.722 116.652 217.204C117.287 215.685 117.343 213.987 116.809 212.431H116.809Z" fill="#FFB8B8"/>
<path d="M99.663 215.262C99.1363 215.262 98.6204 215.113 98.1754 214.831L93.04 211.587C88.9766 209.022 87.5134 203.576 89.6363 198.921L100.164 175.837C100.586 174.87 101.237 174.019 102.06 173.357C102.883 172.695 103.854 172.242 104.89 172.037C105.827 171.865 106.792 171.927 107.7 172.216C108.607 172.505 109.43 173.012 110.095 173.694C111.137 174.782 111.803 176.177 111.992 177.672C112.181 179.167 111.884 180.683 111.146 181.996L100.749 201.015L103.861 203.91C104.326 204.362 104.647 204.941 104.785 205.574C104.923 206.207 104.872 206.867 104.639 207.471L102.491 213.2C102.332 213.643 102.077 214.045 101.743 214.376C101.409 214.707 101.005 214.96 100.56 215.115C100.271 215.212 99.9682 215.262 99.663 215.262Z" fill="#2F2E41"/>
<path d="M209.573 363H0.665311C0.48886 363 0.319645 362.93 0.194875 362.805C0.0701047 362.681 0 362.512 0 362.335C0 362.159 0.0701047 361.99 0.194875 361.865C0.319645 361.74 0.48886 361.67 0.665311 361.67H209.573C209.75 361.67 209.919 361.74 210.043 361.865C210.168 361.99 210.238 362.159 210.238 362.335C210.238 362.512 210.168 362.681 210.043 362.805C209.919 362.93 209.75 363 209.573 363Z" fill="#CCCCCC"/>
</g>
<defs>
<clipPath id="clip0">
<rect width="344" height="363" fill="white"/>
</clipPath>
</defs>
</svg>
