<svg width="287" height="218" viewBox="0 0 287 218" fill="none" xmlns="http://www.w3.org/2000/svg">
<g clip-path="url(#clip0)">
<path d="M114.843 45.2082H113.796V16.5732C113.796 14.3968 113.367 12.2417 112.532 10.2309C111.698 8.22015 110.475 6.39314 108.934 4.85418C107.392 3.31522 105.562 2.09444 103.548 1.26156C101.534 0.428682 99.3757 1.84403e-06 97.1957 0H36.4289C32.0263 -8.37928e-06 27.8039 1.74608 24.6907 4.85414C21.5775 7.9622 19.8286 12.1777 19.8286 16.5731V173.667C19.8285 175.843 20.2579 177.999 21.0922 180.009C21.9264 182.02 23.1492 183.847 24.6907 185.386C26.2322 186.925 28.0622 188.146 30.0762 188.979C32.0903 189.812 34.2489 190.24 36.4289 190.24H97.1956C101.598 190.24 105.821 188.494 108.934 185.386C112.047 182.278 113.796 178.063 113.796 173.667V65.5911H114.843V45.2082Z" fill="#3F3D56"/>
<path d="M97.8655 4.31177H89.9334C90.2982 5.20461 90.4374 6.17332 90.3389 7.13255C90.2403 8.09177 89.907 9.01209 89.3682 9.81241C88.8295 10.6127 88.1019 11.2685 87.2495 11.7219C86.3971 12.1754 85.4461 12.4126 84.4803 12.4127H49.6678C48.702 12.4126 47.751 12.1754 46.8986 11.7219C46.0462 11.2685 45.3186 10.6127 44.7798 9.81241C44.2411 9.01209 43.9078 8.09178 43.8092 7.13255C43.7106 6.17332 43.8499 5.20461 44.2147 4.31177H36.8061C35.1781 4.31177 33.5661 4.6319 32.062 5.25388C30.5579 5.87587 29.1913 6.78752 28.0401 7.9368C26.8889 9.08608 25.9758 10.4505 25.3528 11.9521C24.7298 13.4537 24.4091 15.0631 24.4091 16.6884V173.552C24.4091 175.177 24.7298 176.787 25.3528 178.288C25.9758 179.79 26.8889 181.154 28.0401 182.303C29.1913 183.453 30.5579 184.364 32.062 184.986C33.566 185.608 35.1781 185.928 36.8061 185.928H97.8655C99.4935 185.928 101.106 185.608 102.61 184.986C104.114 184.364 105.48 183.453 106.631 182.303C107.783 181.154 108.696 179.79 109.319 178.288C109.942 176.787 110.262 175.177 110.262 173.552V16.6884C110.262 15.0631 109.942 13.4537 109.319 11.9521C108.696 10.4505 107.783 9.08608 106.631 7.9368C105.48 6.78752 104.114 5.87587 102.61 5.25388C101.106 4.6319 99.4935 4.31177 97.8655 4.31177Z" fill="white"/>
<path d="M134.32 190.267H0.351623C0.258367 190.267 0.16893 190.23 0.102988 190.164C0.0370456 190.099 0 190.009 0 189.916C0 189.823 0.0370456 189.734 0.102988 189.668C0.16893 189.602 0.258367 189.565 0.351623 189.565H134.32C134.413 189.565 134.503 189.602 134.569 189.668C134.635 189.734 134.672 189.823 134.672 189.916C134.672 190.009 134.635 190.099 134.569 190.164C134.503 190.23 134.413 190.267 134.32 190.267Z" fill="#CBCBCB"/>
<path d="M67.3358 121.35C83.7349 121.35 97.029 108.077 97.029 91.7052C97.029 75.3329 83.7349 62.0606 67.3358 62.0606C50.9367 62.0606 37.6426 75.3329 37.6426 91.7052C37.6426 108.077 50.9367 121.35 67.3358 121.35Z" fill="#3E38A5"/>
<path d="M64.3934 103.014C63.7254 103.015 63.0751 102.799 62.5407 102.399L62.5075 102.374L55.5292 97.0448C55.206 96.7974 54.9348 96.4889 54.731 96.1369C54.5272 95.7849 54.3949 95.3962 54.3416 94.9932C54.2883 94.5901 54.315 94.1805 54.4202 93.7877C54.5254 93.3949 54.7071 93.0267 54.9549 92.704C55.2027 92.3814 55.5117 92.1106 55.8643 91.9072C56.2169 91.7037 56.6062 91.5716 57.0099 91.5184C57.4136 91.4651 57.8239 91.4918 58.2173 91.5969C58.6107 91.7019 58.9796 91.8833 59.3028 92.1307L63.8227 95.5911L74.5037 81.6795C74.7514 81.357 75.0603 81.0863 75.4127 80.8829C75.7652 80.6796 76.1543 80.5475 76.5578 80.4943C76.9614 80.4411 77.3715 80.4677 77.7648 80.5728C78.158 80.6778 78.5267 80.8591 78.8498 81.1064L78.8507 81.107L78.7844 81.1989L78.8525 81.107C79.5042 81.6071 79.9306 82.3449 80.0381 83.1586C80.1456 83.9722 79.9254 84.7951 79.4258 85.4469L66.8627 101.803C66.5721 102.18 66.1984 102.485 65.7706 102.694C65.3428 102.903 64.8725 103.011 64.3961 103.01L64.3934 103.014Z" fill="white"/>
<path d="M244.112 193.181C244.474 192.598 244.899 192.057 245.38 191.568C245.579 191.362 245.788 191.169 246.004 190.98C247.317 189.814 248.917 189.017 250.641 188.673C252.364 188.328 254.149 188.448 255.81 189.021C257.472 189.593 258.95 190.597 260.095 191.929C261.239 193.261 262.007 194.873 262.32 196.6C263.77 191.245 259.995 185.971 256.2 181.92C252.402 177.871 248.062 173.428 248.084 167.879C248.095 164.791 249.607 162.037 251.892 159.994C251.962 159.933 252.033 159.871 252.105 159.811C254.865 157.448 258.418 156.213 262.051 156.35C268.802 156.711 274.697 161.241 278.79 166.614C285.379 175.26 288.266 187.395 283.654 197.236C279.596 205.892 270.943 211.032 262.111 215.164C260.878 215.741 259.647 216.301 258.419 216.843C258.411 216.845 258.402 216.851 258.394 216.853C258.335 216.879 258.276 216.905 258.22 216.932C257.967 217.043 257.713 217.155 257.462 217.265L257.578 217.341L257.941 217.576C257.816 217.5 257.691 217.426 257.565 217.35C257.528 217.327 257.488 217.305 257.451 217.282C253.113 214.684 248.715 211.935 245.719 207.878C242.611 203.667 241.361 197.634 244.112 193.181Z" fill="#F1F1F1"/>
<path d="M273.052 183.4C274.013 185.581 274.649 187.891 274.942 190.255C275.173 192.364 275.086 194.495 274.685 196.579C273.824 200.859 271.945 204.871 269.208 208.276C267.142 210.862 264.758 213.176 262.111 215.164C260.878 215.741 259.648 216.301 258.419 216.843C258.411 216.845 258.402 216.851 258.394 216.853C258.335 216.879 258.276 216.905 258.22 216.932C257.967 217.043 257.713 217.155 257.462 217.265L257.578 217.341L257.941 217.576C257.816 217.5 257.691 217.426 257.565 217.35C257.528 217.327 257.488 217.305 257.451 217.282C258.405 213.949 258.546 210.435 257.86 207.036C257.174 203.638 255.683 200.452 253.51 197.748C251.326 195.077 248.54 192.96 245.38 191.568C245.579 191.362 245.788 191.169 246.004 190.98C247.221 191.538 248.386 192.203 249.486 192.965C253.42 195.68 256.374 199.587 257.911 204.108C259.283 208.209 259.454 212.616 258.405 216.811C258.622 216.669 258.841 216.523 259.053 216.378C263.094 213.658 266.818 210.39 269.624 206.384C272.043 202.998 273.591 199.069 274.132 194.945C274.67 190.44 273.54 186.009 271.526 181.99C269.301 177.689 266.498 173.712 263.194 170.17C259.875 166.53 256.123 163.309 252.02 160.578C251.928 160.516 251.863 160.421 251.839 160.312C251.815 160.203 251.834 160.09 251.892 159.994C251.936 159.908 252.012 159.842 252.105 159.811C252.151 159.799 252.2 159.798 252.248 159.808C252.295 159.817 252.34 159.837 252.379 159.866C252.885 160.204 253.387 160.544 253.883 160.895C258.014 163.815 261.766 167.237 265.053 171.081C268.228 174.786 271.118 178.903 273.052 183.4Z" fill="white"/>
<path d="M184.617 13.7647C188.099 13.7647 190.923 10.946 190.923 7.46903C190.923 3.99202 188.099 1.17334 184.617 1.17334C181.134 1.17334 178.311 3.99202 178.311 7.46903C178.311 10.946 181.134 13.7647 184.617 13.7647Z" fill="#F1F1F1"/>
<path d="M263.029 98.016C265.152 98.016 266.873 96.2975 266.873 94.1776C266.873 92.0577 265.152 90.3392 263.029 90.3392C260.905 90.3392 259.184 92.0577 259.184 94.1776C259.184 96.2975 260.905 98.016 263.029 98.016Z" fill="#F1F1F1"/>
<path d="M150.509 108.547C152.633 108.547 154.354 106.829 154.354 104.709C154.354 102.589 152.633 100.871 150.509 100.871C148.386 100.871 146.665 102.589 146.665 104.709C146.665 106.829 148.386 108.547 150.509 108.547Z" fill="#F1F1F1"/>
<path d="M152.68 218H286.648C286.742 218 286.831 217.963 286.897 217.897C286.963 217.831 287 217.742 287 217.649C287 217.556 286.963 217.467 286.897 217.401C286.831 217.335 286.742 217.298 286.648 217.298H152.68C152.587 217.298 152.497 217.335 152.431 217.401C152.365 217.467 152.328 217.556 152.328 217.649C152.328 217.742 152.365 217.831 152.431 217.897C152.497 217.963 152.587 218 152.68 218Z" fill="#CBCBCB"/>
<path d="M271.864 33.9234C272.04 32.6765 271.752 31.4085 271.054 30.3597C270.356 29.3109 269.297 28.5541 268.077 28.2328C266.858 27.9114 265.563 28.0478 264.437 28.6162C263.312 29.1845 262.434 30.1453 261.971 31.3164L251.099 43.7591L254.289 52.6535L265.222 38.1147C265.936 38.3429 266.691 38.4121 267.434 38.3175C268.177 38.2229 268.89 37.9668 269.523 37.5672C270.157 37.1676 270.694 36.6342 271.099 36.0046C271.503 35.3751 271.764 34.6647 271.864 33.9234Z" fill="#FFB7B7"/>
<path d="M226.801 82.3376L262.888 43.8878L258.021 36.162L212.759 74.3783L226.801 82.3376Z" fill="#3F3D56"/>
<path d="M218.747 58.9759C225.738 58.9759 231.406 53.3178 231.406 46.3382C231.406 39.3586 225.738 33.7005 218.747 33.7005C211.756 33.7005 206.089 39.3586 206.089 46.3382C206.089 53.3178 211.756 58.9759 218.747 58.9759Z" fill="#2F2E41"/>
<path d="M219.765 39.1991C222.489 36.4414 225.785 34.3133 229.422 32.9647C231.756 32.1014 234.297 31.5679 236.737 32.0583C239.177 32.5486 241.485 34.2341 242.166 36.6246C242.723 38.5793 242.148 40.684 241.284 42.5241C240.42 44.3642 239.267 46.0706 238.568 47.9793C237.855 49.927 237.641 52.0215 237.944 54.0728C238.248 56.1241 239.06 58.0673 240.306 59.7259C241.553 61.3845 243.195 62.7059 245.083 63.5704C246.97 64.4348 249.045 64.8148 251.117 64.6759C248.719 64.9969 246.509 66.1219 244.165 66.7207C241.821 67.3195 239.055 67.2789 237.313 65.6025C235.471 63.8289 235.434 60.9452 235.523 58.3912C235.655 54.5946 235.788 50.7981 235.92 47.0015C235.988 45.0653 236.045 43.0671 235.346 41.2599C234.646 39.4528 232.984 37.8703 231.044 37.8868C229.573 37.8992 228.272 38.7887 227.092 39.6659C225.913 40.5431 224.664 41.479 223.199 41.6094C221.735 41.7399 220.062 40.6576 220.172 39.1934L219.765 39.1991Z" fill="#2F2E41"/>
<path d="M170.67 131.194C169.454 131.531 168.158 131.411 167.025 130.858C165.892 130.304 165.002 129.355 164.524 128.189C164.045 127.024 164.011 125.725 164.429 124.536C164.846 123.348 165.686 122.354 166.788 121.742L177.724 109.356L186.973 111.351L173.964 124.072C174.284 124.749 174.451 125.487 174.454 126.235C174.457 126.983 174.296 127.722 173.982 128.401C173.668 129.08 173.209 129.682 172.636 130.165C172.064 130.647 171.393 130.999 170.67 131.194H170.67Z" fill="#FFB7B7"/>
<path d="M206.648 86.8507L179.392 121.008L171.084 117.199L203.12 67.4052L206.648 86.8507Z" fill="#3F3D56"/>
<path d="M184.9 189.99L178.404 189.889L179.186 211.993H184.899L184.9 189.99Z" fill="#FFB7B7"/>
<path d="M186.357 210.13L175.104 210.13H175.104C173.202 210.13 171.378 210.884 170.033 212.227C168.689 213.569 167.933 215.39 167.933 217.289V217.521L186.356 217.522L186.357 210.13Z" fill="#2F2E41"/>
<path d="M227.91 184.128L220.814 188.676L235.008 205.725L239.816 202.643L227.91 184.128Z" fill="#FFB7B7"/>
<path d="M240.034 200.289L230.566 206.359L230.565 206.359C228.965 207.385 227.838 209.003 227.433 210.858C227.028 212.713 227.378 214.653 228.405 216.251L228.531 216.447L244.034 206.51L240.034 200.289Z" fill="#2F2E41"/>
<path d="M230.438 116.632C230.438 116.632 214.671 64.3513 209.604 63.6449C204.537 62.9384 196.373 77.0594 196.373 77.0594C185.788 90.5425 174.874 134.217 174.874 134.217C174.874 134.217 193.069 135.354 206.37 142.419C219.67 149.484 235.367 142.061 235.367 142.061L230.438 116.632Z" fill="#3F3D56"/>
<path opacity="0.1" d="M230.438 116.632C230.438 116.632 214.671 64.3513 209.604 63.6448C204.537 62.9384 198.447 77.2027 198.447 77.2027C193.172 98.9676 174.874 134.217 174.874 134.217C174.874 134.217 193.069 135.354 206.37 142.419C219.67 149.484 235.367 142.061 235.367 142.061L230.438 116.632Z" fill="black"/>
<path d="M217.502 100.99V127.26L220.599 165.315L236.07 194.101L228.686 199.367L207.589 171.985L199.245 144.797L186.14 204.984L176.295 204.281L183.132 120.834L196.107 97.3452L217.502 100.99Z" fill="#2F2E41"/>
<path d="M201.606 75.5802C196.683 80.4949 201.254 85.7606 201.254 85.7606L195.628 98.3983L217.78 104.366L225.522 69.8307L220.247 64.214C209.699 63.8629 209.693 63.6447 209.693 63.6447C207.845 65.4504 201.606 75.5802 201.606 75.5802Z" fill="#3E38A5"/>
<path d="M226.414 66.2529C225.408 65.5114 224.264 64.9767 223.05 64.6795C221.835 64.3824 220.574 64.3288 219.338 64.5219C218.103 64.7149 216.918 65.1508 215.852 65.8043C214.787 66.4577 213.862 67.3157 213.131 68.3286C207.562 76.07 202.412 88.5704 209.507 104.161C220.899 129.194 230.813 142.009 234.843 142.007C235.019 142.009 235.194 141.981 235.361 141.926C237.842 141.086 241.429 136.895 242.078 133.201C242.311 131.88 242.255 130.038 240.672 128.774C236.123 125.142 227.958 113.833 225.411 98.9477C224.003 90.7228 226.733 83.2306 229.271 78.394C230.343 76.3927 230.657 74.0727 230.154 71.8594C229.652 69.646 228.368 67.6875 226.536 66.3429V66.3429L226.414 66.2529Z" fill="#3F3D56"/>
<path d="M219.398 57.7343C223.914 55.2699 225.573 49.6176 223.105 45.1094C220.637 40.6012 214.975 38.9444 210.459 41.4088C205.944 43.8732 204.284 49.5256 206.753 54.0337C209.221 58.5419 214.883 60.1987 219.398 57.7343Z" fill="#FFB7B7"/>
<path d="M201.824 48.8682H215.279L215.417 46.9396L216.107 48.8682H218.179L218.452 45.0458L219.82 48.8682H223.829V48.6788C223.826 46.0178 222.765 43.4665 220.881 41.5848C218.996 39.7031 216.44 38.6447 213.775 38.6417H211.878C209.213 38.6447 206.657 39.7031 204.772 41.5848C202.888 43.4665 201.827 46.0177 201.824 48.6788V48.8682Z" fill="#2F2E41"/>
<path d="M221.796 55.8004L227.538 53.9403V40.0193H216.692L216.961 40.287C220.697 44.0119 224.852 57.2275 221.796 55.8004Z" fill="#2F2E41"/>
</g>
<defs>
<clipPath id="clip0">
<rect width="287" height="218" fill="white"/>
</clipPath>
</defs>
</svg>
