<svg width="302" height="190" viewBox="0 0 302 190" fill="none" xmlns="http://www.w3.org/2000/svg">
<g clip-path="url(#clip0)">
<path d="M232.442 143.513C244.864 112.477 241.106 77.823 225.085 51.2078L57.3764 74.4131L218.095 40.9412C150.359 -43.4687 18.5205 12.5194 31.2291 119.093L232.442 143.513Z" fill="#E6E6E6"/>
<path d="M239.838 109.206H26.175V175.694H239.838V109.206Z" fill="#6F5F90"/>
<path d="M85.7634 101.098C87.6804 102.586 88.3814 103.066 88.7897 103.005C108.569 108.761 91.2295 115.506 81.6191 104.056L85.7634 101.098Z" fill="#FFB8B8"/>
<path d="M20.4954 161.91V175.424L30.2318 174.883L27.5274 160.829L20.4954 161.91Z" fill="#FFB8B8"/>
<path d="M74.5873 161.91V175.424L64.8506 174.883L67.5553 160.829L74.5873 161.91Z" fill="#FFB8B8"/>
<path d="M44.8367 92.1787L59.4415 91.6382C93.1329 126.935 80.3915 118.884 79.4555 167.315L61.6051 161.91L65.3916 128.396C65.3935 128.394 66.3904 127.73 65.5617 127.715C60.3793 129.495 56.5981 107.459 45.3776 110.017C32.6092 109.407 30.5306 128.335 25.3636 128.396L29.15 161.91L11.2997 167.315C9.30113 114.095 -0.49404 126.117 31.3137 91.6382L44.8367 92.1787Z" fill="#2F2E41"/>
<path d="M23.1999 171.099C23.1999 171.099 21.0363 166.775 18.3317 168.937C15.6271 171.099 9.13605 177.586 9.13605 177.586C9.13605 177.586 -6.55058 184.613 3.18595 188.937C12.9225 193.262 21.0363 182.991 21.0363 182.991C30.3102 181.059 35.6594 179.822 30.7413 169.713C27.9491 170.92 23.9977 172.318 23.1999 171.099Z" fill="#2F2E41"/>
<path d="M71.8826 171.099C71.8826 171.099 74.0463 166.775 76.7509 168.937C79.4555 171.099 85.9465 177.586 85.9465 177.586C85.9465 177.586 101.633 184.613 91.8966 188.937C82.16 193.262 74.0463 182.991 74.0463 182.991C64.7723 181.059 59.4231 179.822 64.3412 169.713C67.1334 170.92 71.0848 172.318 71.8826 171.099Z" fill="#2F2E41"/>
<path d="M59.4415 31.0966C58.637 44.5531 40.2593 43.3684 39.9685 31.0965C40.7729 17.6401 59.1506 18.8248 59.4415 31.0966Z" fill="#FFB8B8"/>
<path d="M45.3776 38.1238C50.1096 52.4161 38.9375 44.6349 54.5732 55.962L60.5233 44.0699C60.5233 44.0699 56.1959 42.4483 56.7368 36.5022L45.3776 38.1238Z" fill="#FFB8B8"/>
<path d="M74.5872 46.2322L58.4626 42.5542C58.9161 52.2702 48.5403 50.3147 46.7299 45.4273L31.3137 54.3404C37.7843 78.4234 36.1444 79.4171 27.5273 94.8817C24.2386 97.8827 29.1568 99.6028 33.4385 97.9606C36.7042 95.9464 38.3626 94.1565 41.8619 94.612C58.3967 98.0525 72.1616 98.8646 74.34 97.5202C75.1195 96.4053 74.3175 46.4257 74.5872 46.2322Z" fill="#575A89"/>
<path d="M70.2599 47.3131C70.8008 47.3131 73.5872 46.0039 73.5872 46.0039C81.6937 45.8674 87.1338 100.36 87.5693 101.909L82.1601 105.693L73.5054 83.53L70.2599 47.3131Z" fill="#575A89"/>
<path d="M32.3956 110.558C32.6721 112.598 33.1428 135.508 41.3552 124.806C42.4327 116.998 38.7695 114.667 37.8048 109.477L32.3956 110.558Z" fill="#FFB8B8"/>
<path d="M34.5592 54.3402L32.9018 53.422C28.4585 53.2761 29.8589 65.0299 27.979 73.6376C26.4432 83.6654 26.8805 94.7226 28.6823 109.505C28.8399 114.93 38.5627 111.513 39.9684 111.098C39.9684 111.098 36.7229 88.9354 38.3456 85.1516C39.9684 81.3677 34.5592 54.3402 34.5592 54.3402Z" fill="#575A89"/>
<path d="M59.0159 21.6641C57.5138 19.2265 55.1625 17.4302 52.4146 16.621L50.3963 18.2345L51.181 16.3526C50.5211 16.252 49.8533 16.2134 49.1862 16.2374L47.3703 18.5706L48.1219 16.3173C40.3297 17.1534 35.7195 26.0924 39.7648 32.3486C40.3888 30.4322 41.1462 28.634 41.7702 26.7176C42.2607 26.7844 42.7577 26.7869 43.2488 26.7248L44.008 24.9545L44.2201 26.6499C46.5732 26.4451 50.0635 25.9953 52.2944 25.5832L52.0775 24.2825L53.3753 25.3633C54.0588 25.2061 54.4646 25.0635 54.4311 24.9545C56.0902 27.6275 57.7342 29.3347 59.3933 32.0076C60.0231 28.2374 61.1349 25.1035 59.0159 21.6641Z" fill="#2F2E41"/>
<path d="M227.049 117.227H179.862V139.595H227.049V117.227Z" fill="white"/>
<path d="M218.126 121.912H188.785V124.594H218.126V121.912Z" fill="#E6E6E6"/>
<path d="M218.126 127.07H188.785V129.752H218.126V127.07Z" fill="#E6E6E6"/>
<path d="M218.126 132.228H188.785V134.91H218.126V132.228Z" fill="#E6E6E6"/>
<path d="M138.77 122.54L137.235 119.883L135.7 117.227L134.165 119.883L132.63 122.54H134.279V130.233H137.121V122.54H138.77Z" fill="white"/>
<path d="M242.774 177.28C249.754 177.28 255.412 171.625 255.412 164.65C255.412 157.675 249.754 152.02 242.774 152.02C235.794 152.02 230.135 157.675 230.135 164.65C230.135 171.625 235.794 177.28 242.774 177.28Z" fill="#3F3D56"/>
<path d="M245.072 170.247C248.165 170.247 250.673 167.741 250.673 164.65C250.673 161.559 248.165 159.052 245.072 159.052C241.978 159.052 239.47 161.559 239.47 164.65C239.47 167.741 241.978 170.247 245.072 170.247Z" fill="#E6E6E6"/>
<path d="M234.803 173.476L262.378 184.958L261.516 187.685L245.646 185.891L218.789 173.978L233.726 175.701L234.803 173.476Z" fill="#3F3D56"/>
<path d="M259.178 184.441L293.473 72.0166L301.825 57.1951L301.854 57.0521C301.881 56.9213 302.494 53.8233 300.986 51.5798C300.606 51.0221 300.115 50.5487 299.543 50.189C298.972 49.8293 298.333 49.5911 297.665 49.4892C293.056 48.6256 282.744 48.2 282.307 48.1823L282.225 48.179L282.143 48.1901C281.861 48.2285 275.271 49.1912 273.781 54.942L266.611 67.9821L266.583 68.0749L234.125 174.712L235.911 175.255L268.341 68.7106L275.535 55.6266L275.564 55.5063C276.618 51.1787 281.654 50.1663 282.324 50.0505C283.377 50.0954 293.069 50.5264 297.321 51.323C297.743 51.3806 298.149 51.525 298.512 51.7473C298.875 51.9695 299.189 52.2647 299.432 52.6143C300.362 53.9898 300.129 56.015 300.047 56.5474L291.747 71.2781L291.717 71.3753L257.392 183.897L259.178 184.441Z" fill="#3F3D56"/>
<path d="M264.192 78.7638L263.86 80.5999L288.629 85.0703L288.961 83.2343L264.192 78.7638Z" fill="#3F3D56"/>
<path d="M259.566 94.0333L259.193 95.8613L283.785 100.877L284.159 99.049L259.566 94.0333Z" fill="#3F3D56"/>
<path d="M251.329 121.342L250.816 123.136L274.826 130.001L275.339 128.208L251.329 121.342Z" fill="#3F3D56"/>
<path d="M267.567 174.273L268.247 172.536L244.943 163.417L243.798 151.034L265.55 159.153L272.597 169.342L274.133 168.281L266.752 157.61L241.666 148.246L243.19 164.734L267.567 174.273Z" fill="#3F3D56"/>
<path d="M275.663 189.335C282.643 189.335 288.301 183.681 288.301 176.705C288.301 169.73 282.643 164.075 275.663 164.075C268.683 164.075 263.024 169.73 263.024 176.705C263.024 183.681 268.683 189.335 275.663 189.335Z" fill="#3F3D56"/>
<path d="M278.966 182.877C282.059 182.877 284.567 180.371 284.567 177.28C284.567 174.188 282.059 171.682 278.966 171.682C275.872 171.682 273.365 174.188 273.365 177.28C273.365 180.371 275.872 182.877 278.966 182.877Z" fill="#E6E6E6"/>
</g>
<defs>
<clipPath id="clip0">
<rect width="302" height="190" fill="white"/>
</clipPath>
</defs>
</svg>
