<svg width="324" height="336" viewBox="0 0 324 336" fill="none" xmlns="http://www.w3.org/2000/svg">
<path opacity="0.1" d="M150.837 329.492C192.262 329.492 225.844 323.139 225.844 315.302C225.844 307.466 192.262 301.113 150.837 301.113C109.411 301.113 75.8295 307.466 75.8295 315.302C75.8295 323.139 109.411 329.492 150.837 329.492Z" fill="#6F5F90"/>
<path d="M227.927 153.868L214.881 145.084L221.461 135.301L187.003 132.557L174.621 142.119L159.121 133.442L146.194 134.995L146.041 131.592C145.881 128.044 145.524 124.508 144.972 121C145.027 119.937 145.065 118.716 145.061 117.389C145.061 111.796 144.303 104.382 140.972 99.4393L141.739 92.5571L135.52 85.2197C136.519 83.2331 137.658 81.3199 138.928 79.4944C139.141 79.1882 139.354 78.8904 139.584 78.6012C147.655 78.0185 154.023 71.3914 154.023 63.2884C154.023 62.9141 154.023 62.5398 153.98 62.1698C153.98 62.0209 153.951 61.8677 153.933 61.7189C154.721 62.1442 155.518 62.5696 156.314 62.9949C156.464 63.2076 156.634 63.4203 156.821 63.6713L156.86 63.718L157.098 64.0115L157.175 64.1009C157.26 64.2029 157.349 64.3008 157.439 64.4029L157.499 64.4709C157.724 64.7219 157.963 64.9771 158.218 65.228C158.249 65.2528 158.277 65.2798 158.304 65.3089L158.623 65.6066L158.712 65.6874C158.985 65.9299 159.275 66.1638 159.564 66.385L159.658 66.4531L160.024 66.704L160.144 66.7806C160.284 66.8657 160.429 66.955 160.57 67.0358L160.621 67.0656C160.787 67.1549 160.957 67.24 161.128 67.3208L161.213 67.3548C161.358 67.4172 161.5 67.4768 161.639 67.5335L161.771 67.5803C161.92 67.6313 162.065 67.6781 162.218 67.7206L162.312 67.7461C162.499 67.7929 162.686 67.8312 162.878 67.861H162.899C163.08 67.8901 163.262 67.9086 163.445 67.9163H163.568C163.731 67.9248 163.895 67.9248 164.058 67.9163H164.164C164.369 67.9045 164.572 67.8804 164.774 67.844C165.727 67.7188 166.642 67.391 167.457 66.8827C167.665 66.744 167.849 66.5732 168.002 66.3765C168.854 65.2621 167.917 64.0413 167.917 64.0413C167.585 63.2501 165.429 62.6929 165.429 62.6929C165.429 62.6929 158.615 59.8516 158.615 57.5887C158.615 55.3258 156.911 43.586 139.324 40.902C139.324 40.902 127.883 40.2598 124.667 46.3763L124.599 47.0909C123.654 47.6822 122.87 48.8689 121.937 49.2177C121.534 49.3042 121.145 49.4474 120.783 49.6431V49.5623C120.675 49.6563 120.587 49.7704 120.523 49.8983C120.323 50.2964 120.203 50.73 120.169 51.1743C120.074 51.7172 119.885 52.2395 119.611 52.7184C119.535 52.8545 119.45 52.9852 119.356 53.1097V53.1097L119.284 53.2246C119.778 53.263 120.275 53.1828 120.732 52.9906C120.66 53.573 120.517 54.1443 120.306 54.692C120.577 54.7008 120.844 54.6317 121.077 54.4929C121.309 54.3542 121.497 54.1516 121.618 53.9094V53.8753L121.673 53.7988C121.78 53.6019 121.869 53.3954 121.937 53.182L121.89 53.2331C121.975 52.9566 122.052 52.6758 122.146 52.4036C122.189 52.2503 122.259 52.1061 122.355 51.9783C122.468 51.8638 122.607 51.7776 122.76 51.7266C122.914 51.6757 123.076 51.6613 123.236 51.6848L123.062 55.3726H123.138C123.036 55.6408 122.91 55.8998 122.763 56.1467C122.159 57.125 121.06 57.7929 120.655 58.8647C120.481 59.3817 120.414 59.9289 120.459 60.4726C120.459 60.7916 120.497 61.1149 120.523 61.4339V61.4084C120.583 62.2591 120.6 63.0672 120.14 63.7521C119.824 64.22 119.318 64.573 119.143 65.1047C119.095 65.2528 119.073 65.4084 119.079 65.5641C119.113 66.0302 119.211 66.4895 119.369 66.9295C119.371 66.9211 119.371 66.9124 119.369 66.9039C119.475 67.2276 119.5 67.5723 119.441 67.9078C119.249 68.7585 118.214 69.4688 118.266 70.2813C118.263 70.3881 118.278 70.4946 118.312 70.596C118.512 70.9928 118.856 71.2976 119.275 71.4467C119.932 71.8196 120.686 71.9857 121.439 71.9231C121.721 71.8722 121.994 71.779 122.248 71.6466C121.95 72.3315 121.643 73.0078 121.332 73.6501C121.285 73.7521 121.234 73.8542 121.183 73.9563C121.183 73.9563 118.551 72.1996 117.056 75.7811C116.619 76.5254 116.307 77.3356 116.132 78.1801C116.057 78.5179 115.951 78.8482 115.816 79.1669C115.153 80.289 114.159 81.18 112.971 81.719C109.921 83.1142 97.6033 98.4567 97.3861 102.43C97.2795 103.98 97.0169 105.517 96.6024 107.015C95.6327 110.543 95.3836 114.231 95.8698 117.857C96.022 119.029 96.2742 120.186 96.6237 121.315C97.9313 125.284 98.8045 132.689 98.8045 132.689L100.219 145.543C100.166 147.318 100.243 149.093 100.449 150.856C99.0047 152.502 93.2077 159.363 95.4226 161.23C97.1263 162.702 100.108 162.46 101.782 162.158C100.372 165.641 98.1528 171.698 97.8589 175.858C97.433 182.013 98.5873 190.167 100.415 193.298C102.242 196.429 108.333 204.459 108.333 204.459C108.333 204.459 108.047 215.476 110.224 219.479C112.4 223.481 113.278 231.784 113.278 231.784C113.278 231.784 115.31 238.794 114.292 241.371C113.274 243.949 116.178 246.093 113.129 247.807C110.079 249.521 106.177 288.156 106.177 288.156C106.177 288.156 104.606 313.478 106.177 314.766C106.262 314.827 106.351 314.88 106.446 314.924V323.431C106.446 323.431 105.355 325.217 109.789 325.579C112.826 325.821 121.435 326.37 126.541 326.689L130.498 326.936C130.498 326.936 139.869 328.799 144.009 326.936C148.149 325.073 155.488 325.115 154.398 320.194C154.253 319.524 154.06 318.866 153.818 318.224C152.622 315.17 150.59 314.822 146.846 313.971C146.629 313.924 146.42 313.882 146.228 313.848C142.284 313.163 140.989 314.996 138.779 312.61C136.858 310.547 130.741 308.237 128.658 307.506C128.71 307.352 128.773 307.204 128.824 307.046C128.235 306.946 127.686 306.679 127.244 306.276L132.888 306.634L136.249 306.842C136.249 306.842 144.214 308.429 147.749 306.842C151.284 305.255 157.503 305.298 156.574 301.117C156.452 300.547 156.288 299.987 156.084 299.441C155.066 296.846 153.337 296.561 150.155 295.842C149.972 295.804 149.802 295.766 149.632 295.736C146.279 295.153 145.18 296.71 143.302 294.685C141.692 292.958 136.611 291.023 134.783 290.364C134.783 289.419 133.506 288.075 132.701 286.727C131.755 285.153 133.501 279.645 133.501 279.645L134.498 256.791C134.878 256.622 135.279 256.507 135.691 256.45C135.691 256.45 140.197 252.154 139.179 247.577C138.972 246.193 138.863 244.796 138.855 243.396C140.338 242.022 142.378 239.993 142.957 238.743C143.903 236.705 142.957 226.833 142.957 226.833V189.083L150.496 189.844L157.337 190.546L159.42 190.759L166.26 191.448L181.981 193.034L196.148 190.355L202.277 189.198L214.881 186.816V156.02L227.927 153.868ZM124.165 51.8209L123.287 51.7273C123.577 51.7401 123.884 51.7954 124.165 51.8209Z" fill="url(#paint0_linear)"/>
<path d="M197.349 173.863C193.09 179.95 177.777 176.726 177.777 176.726L165.911 165.637L164.314 164.136L166.993 158.453C166.993 158.453 167.845 158.687 169.306 159.104C176.977 161.328 200.944 168.746 197.349 173.863Z" fill="#EFB7B9"/>
<path opacity="0.1" d="M169.297 159.104C168.773 160.924 167.338 163.651 165.911 165.637L164.314 164.136L166.993 158.453C166.993 158.453 167.853 158.687 169.297 159.104Z" fill="black"/>
<path d="M128.599 95.0199C128.599 95.0199 117.661 99.8647 118.197 111.762C118.584 119.427 119.42 127.062 120.702 134.629C120.702 134.629 118.466 152.532 127.777 157.147C137.088 161.762 145.704 165.556 145.704 165.556C145.704 165.556 160.271 167.122 162.082 167.768C163.892 168.415 169.548 158.53 168.505 156.99C167.461 155.45 154.091 152.222 152.387 149.652C150.684 147.083 146.744 145.497 146.744 145.497C146.744 145.497 142.676 143.038 142.399 140.818C142.122 138.597 143.196 136.943 143.468 135.969C143.741 134.995 144.431 125.59 144.431 125.59C144.431 125.59 149.022 92.1147 128.599 95.0199Z" fill="#DCE6F2"/>
<path opacity="0.1" d="M135.818 134.14C135.818 134.14 120.813 136.649 122.265 141.894C122.265 141.894 127.713 136.233 135.818 134.14Z" fill="black"/>
<path opacity="0.1" d="M135.933 136.262C135.933 136.262 127.683 142.987 129.297 143.332C130.912 143.676 135.933 136.262 135.933 136.262Z" fill="black"/>
<path opacity="0.1" d="M139.899 138.606C139.899 138.606 137.688 143.127 139.047 142.821C140.406 142.515 139.899 138.606 139.899 138.606Z" fill="black"/>
<path opacity="0.1" d="M169.851 159.584L168.939 159.325C169.199 158.474 169.271 157.785 169.058 157.466C168.015 155.926 154.653 152.702 152.954 150.129C151.254 147.555 147.31 145.973 147.31 145.973C147.31 145.973 143.242 143.514 142.966 141.294C142.689 139.074 143.762 137.419 144.035 136.445C144.307 135.471 144.997 126.062 144.997 126.062C144.997 126.062 149.576 92.5911 129.152 95.4962C129.152 95.4962 118.214 100.345 118.747 112.242C119.133 119.907 119.971 127.543 121.256 135.109C121.256 135.109 119.019 153.013 128.33 157.628C137.641 162.243 146.258 166.037 146.258 166.037C146.258 166.037 160.821 167.598 162.635 168.249C163.321 168.496 164.561 167.224 165.774 165.476L166.465 166.118L178.331 177.203C178.331 177.203 193.644 180.431 197.903 174.344C201.502 169.223 177.539 161.805 169.851 159.584Z" fill="black"/>
<path d="M122.303 50.3661C121.886 50.4475 121.487 50.6016 121.124 50.8213C120.698 51.1743 120.698 51.7783 120.591 52.3058C120.466 53.0395 120.175 53.7349 119.739 54.339C120.224 54.3745 120.71 54.2943 121.158 54.105C121.085 54.6872 120.942 55.2585 120.732 55.8064C120.997 55.8132 121.259 55.7433 121.485 55.6053C121.712 55.4672 121.894 55.2668 122.01 55.028C122.235 54.5487 122.413 54.0487 122.542 53.535C122.582 53.3814 122.651 53.2369 122.746 53.1097C123.138 52.646 123.867 52.8545 124.471 52.914C124.975 52.9564 125.48 52.8636 125.936 52.6452C126.391 52.4268 126.78 52.0908 127.061 51.672C127.704 50.6979 127.743 48.2053 126.209 47.9416C124.608 47.6779 123.611 49.8812 122.303 50.3661Z" fill="#965D7B"/>
<g opacity="0.1">
<path opacity="0.1" d="M121.081 51.3445C121.119 51.1361 121.145 50.9191 121.192 50.7107C120.787 51.0637 120.766 51.6635 120.659 52.1952C120.606 52.502 120.521 52.8026 120.408 53.0927C120.743 52.5589 120.972 51.9652 121.081 51.3445V51.3445Z" fill="black"/>
<path opacity="0.1" d="M121.217 54.8579C121.429 54.3106 121.572 53.7391 121.643 53.1565C121.217 53.3358 120.755 53.4158 120.293 53.3904C120.158 53.6896 119.994 53.9746 119.803 54.2411C120.286 54.2785 120.771 54.1997 121.217 54.0115C121.147 54.594 121.003 55.1656 120.791 55.7129C121.057 55.7191 121.318 55.649 121.545 55.511C121.771 55.373 121.953 55.1729 122.069 54.9345C122.175 54.7411 122.261 54.5373 122.325 54.3262C122.2 54.5006 122.033 54.6408 121.839 54.7337C121.646 54.8266 121.432 54.8694 121.217 54.8579V54.8579Z" fill="black"/>
<path opacity="0.1" d="M124.957 51.9655C124.352 51.9059 123.62 51.6975 123.228 52.1611C123.134 52.2894 123.065 52.4335 123.023 52.5865C122.985 52.6971 122.951 52.8119 122.921 52.9268C123.326 52.6077 123.982 52.7779 124.531 52.8332C125.034 52.8742 125.539 52.7808 125.994 52.5625C126.45 52.3443 126.838 52.009 127.121 51.5911C127.25 51.3846 127.346 51.1593 127.406 50.9233C127.114 51.2839 126.739 51.5674 126.312 51.7491C125.885 51.9308 125.419 52.0051 124.957 51.9655Z" fill="black"/>
</g>
<path d="M135.124 85.4962L141.62 93.2972L140.772 101.171L132.922 88.899L135.124 85.4962Z" fill="#DCE6F2"/>
<path opacity="0.1" d="M141.615 93.2972L140.819 100.703L140.768 101.171L133.684 90.0943L132.922 88.899L133.143 88.5545L135.12 85.4962L135.559 86.0237L141.615 93.2972Z" fill="black"/>
<path d="M144.989 74.9347C142.791 75.5643 140.691 77.725 138.864 80.3495C137.629 82.1603 136.524 84.0564 135.559 86.0237C134.958 87.2232 134.43 88.3759 133.991 89.3798L133.684 90.0943C132.943 91.8426 132.53 93.0123 132.53 93.0123C132.53 93.0123 115.706 80.3793 118.368 79.5286C119.262 79.2436 120.438 77.3295 121.601 74.9177L121.745 74.6115C122.482 73.0632 123.206 71.3362 123.85 69.7114C125.166 66.3723 126.141 63.4714 126.141 63.4714C126.141 63.4714 151.697 73.0206 144.989 74.9347Z" fill="#EFB7B9"/>
<path d="M155.054 62.761C155.054 62.761 158.938 69.7793 164.156 68.8223C169.374 67.8652 167.227 65.0536 167.227 65.0536L155.054 62.761Z" fill="#444053"/>
<path d="M147.527 305.702C144.086 307.272 136.304 305.702 136.304 305.702L133.024 305.498C128.765 305.226 121.635 304.766 119.113 304.562C115.433 304.26 116.336 302.754 116.336 302.754V293.656L134.191 289.139C134.191 289.139 141.249 291.55 143.183 293.656C145.019 295.664 146.092 294.12 149.367 294.698C149.529 294.728 149.7 294.762 149.879 294.804C152.988 295.515 154.675 295.795 155.671 298.369C155.872 298.91 156.032 299.464 156.153 300.028C157.073 304.171 150.965 304.141 147.527 305.702Z" fill="#A36468"/>
<path opacity="0.1" d="M155.671 298.369C155.031 298.768 154.359 299.112 153.661 299.398C151.318 300.466 149.091 301.767 146.722 302.775C144.354 303.784 141.803 304.502 139.239 304.311C137.897 304.213 136.525 303.886 135.243 304.268C134.45 304.574 133.704 304.988 133.024 305.498C128.765 305.226 121.635 304.766 119.113 304.562C115.433 304.26 116.336 302.754 116.336 302.754V301.691C116.468 301.691 116.617 301.653 116.788 301.64C117.669 301.626 118.547 301.756 119.386 302.027C121.234 302.529 123.074 303.022 124.923 303.516C125.075 302.943 125.342 302.407 125.708 301.94C126.074 301.473 126.532 301.086 127.053 300.802C128.108 300.243 129.292 299.971 130.486 300.015C133.352 300.053 136.065 301.41 138.928 301.546C139.728 301.62 140.534 301.485 141.266 301.155C141.658 300.959 142.003 300.674 142.386 300.457C143 300.161 143.648 299.942 144.316 299.807C146.193 299.34 148.036 298.746 149.832 298.029C150.343 297.829 150.939 297.467 150.871 296.923C150.782 296.2 149.644 296.114 149.346 295.451C149.293 295.331 149.269 295.201 149.275 295.07C149.281 294.94 149.317 294.812 149.38 294.698C149.542 294.728 149.712 294.762 149.891 294.804C152.988 295.515 154.675 295.795 155.671 298.369Z" fill="black"/>
<path d="M143.89 325.609C139.843 327.455 130.686 325.609 130.686 325.609L126.831 325.383C121.839 325.064 113.431 324.533 110.462 324.282C106.131 323.924 107.195 322.155 107.195 322.155V311.432L128.207 306.115C128.207 306.115 136.513 308.952 138.787 311.432C140.947 313.792 142.195 311.976 146.066 312.657C146.258 312.691 146.458 312.733 146.667 312.78C150.326 313.631 152.311 313.95 153.482 316.978C153.719 317.614 153.908 318.267 154.048 318.931C155.105 323.805 147.936 323.767 143.89 325.609Z" fill="#A36468"/>
<path opacity="0.1" d="M153.473 316.978C152.721 317.447 151.93 317.853 151.11 318.19C148.354 319.445 145.73 320.976 142.944 322.163C140.159 323.35 137.156 324.192 134.136 323.971C132.56 323.856 130.946 323.46 129.451 323.92C128.514 324.284 127.632 324.777 126.831 325.383C121.839 325.064 113.431 324.532 110.462 324.281C106.131 323.924 107.195 322.155 107.195 322.155V320.904C107.372 320.875 107.55 320.855 107.728 320.845C108.766 320.826 109.799 320.979 110.786 321.3L117.299 323.052C117.48 322.376 117.798 321.744 118.232 321.195C118.666 320.646 119.208 320.191 119.824 319.858C121.066 319.197 122.461 318.877 123.867 318.93C127.24 318.977 130.43 320.572 133.799 320.734C134.738 320.819 135.682 320.663 136.542 320.279C137.007 320.045 137.394 319.709 137.863 319.458C138.583 319.106 139.346 318.848 140.133 318.692C142.33 318.139 144.487 317.44 146.59 316.599C147.191 316.361 147.894 315.936 147.813 315.298C147.706 314.447 146.369 314.345 146.015 313.562C145.956 313.421 145.929 313.268 145.936 313.115C145.943 312.962 145.985 312.813 146.058 312.678C146.25 312.712 146.45 312.754 146.658 312.801C150.317 313.618 152.302 313.95 153.473 316.978Z" fill="black"/>
<path d="M134.732 252.026L133.595 278.752C133.595 278.752 131.891 284.209 132.816 285.77C133.74 287.331 135.299 288.888 134.732 289.811C134.166 290.734 127.351 300.713 125.149 296.884C122.947 293.056 120.774 276.467 120.774 276.467L122.806 255.978L134.732 252.026Z" fill="#444053"/>
<path d="M139.665 185.442L142.825 189.661V226.361C142.825 226.361 143.749 236.144 142.825 238.164C141.901 240.185 137.215 244.226 137.215 244.226L133.276 224.021L134.127 202.647L139.665 185.442Z" fill="#444053"/>
<path opacity="0.1" d="M134.732 252.026L133.595 278.752C133.595 278.752 131.891 284.209 132.816 285.77C133.74 287.331 135.299 288.888 134.732 289.811C134.166 290.734 127.351 300.713 125.149 296.884C122.947 293.056 120.774 276.467 120.774 276.467L122.806 255.978L134.732 252.026Z" fill="black"/>
<path opacity="0.1" d="M139.665 185.442L142.825 189.661V226.361C142.825 226.361 143.749 236.144 142.825 238.164C141.901 240.185 137.215 244.226 137.215 244.226L133.276 224.021L134.127 202.647L139.665 185.442Z" fill="black"/>
<path d="M142.825 169.789V189.64L139.277 205.093C139.277 205.093 138.14 242.384 139.132 246.918C140.125 251.452 135.725 255.71 135.725 255.71C135.725 255.71 133.169 255.995 133.169 257.977C133.169 259.959 128.91 265.634 128.91 265.634L129.05 276.693C129.05 276.693 130.899 297.395 128.058 301.363C125.217 305.332 129.05 305.902 129.05 305.902C125.502 317.527 108.465 314.834 106.927 313.558C105.389 312.282 106.927 287.186 106.927 287.186C106.927 287.186 110.735 248.904 113.717 247.203C116.698 245.502 113.861 243.375 114.854 240.823C115.846 238.271 113.861 231.325 113.861 231.325C113.861 231.325 113.009 223.098 110.88 219.13C108.75 215.161 109.031 204.242 109.031 204.242C109.031 204.242 103.068 196.301 101.296 193.183C99.5243 190.065 98.3828 181.983 98.8087 175.884C99.0984 171.762 101.266 165.76 102.642 162.307C103.302 160.652 103.779 159.58 103.779 159.58L104.184 159.686L127.449 165.769L142.825 169.789Z" fill="#444053"/>
<path opacity="0.1" d="M144.989 74.9346C142.791 75.5641 140.691 77.7249 138.864 80.3493H138.387C135.708 80.3512 133.077 79.647 130.759 78.3079C128.44 76.9687 126.517 75.0421 125.183 72.7228C124.625 71.7617 124.177 70.7417 123.845 69.6815C125.161 66.3424 126.137 63.4415 126.137 63.4415C126.137 63.4415 151.697 73.0205 144.989 74.9346Z" fill="black"/>
<path d="M153.614 64.3007C153.618 66.6281 153.087 68.9253 152.061 71.0153C151.036 73.1054 149.544 74.9325 147.7 76.356C145.856 77.7794 143.71 78.7612 141.426 79.2258C139.143 79.6903 136.783 79.6252 134.528 79.0354C132.274 78.4456 130.185 77.3469 128.422 75.824C126.66 74.301 125.271 72.3944 124.363 70.251C123.455 68.1076 123.052 65.7846 123.184 63.461C123.317 61.1374 123.981 58.8751 125.127 56.8485C125.589 56.0251 126.128 55.2474 126.737 54.5261C127.742 53.3311 128.922 52.2956 130.239 51.4551C132.462 50.0442 135.013 49.2334 137.644 49.1019C140.275 48.9704 142.895 49.5226 145.248 50.7047C147.601 51.8867 149.607 53.6581 151.07 55.8458C152.532 58.0336 153.402 60.5628 153.593 63.1863C153.601 63.5606 153.614 63.9307 153.614 64.3007Z" fill="#EFB7B9"/>
<path opacity="0.1" d="M140.819 100.703L140.768 101.17L133.684 90.1112C132.943 91.8594 132.53 93.0292 132.53 93.0292C132.53 93.0292 115.706 80.3791 118.368 79.5284C119.262 79.2434 120.438 77.3293 121.601 74.9176L121.745 74.6113C122.981 78.2864 130.158 85.6323 133.143 88.5757C133.489 88.916 133.774 89.1967 133.995 89.4009L134.451 89.8262L134.69 90.0644C135.776 91.1831 140.359 96.1172 140.819 100.703Z" fill="black"/>
<path d="M146.113 138.227L145.338 163.14L145.202 167.577C145.202 167.577 136.019 166.726 127.449 165.79C120.549 165.037 114.045 164.225 113.044 163.749C111.766 163.149 109.027 162.685 106.867 162.392C105.198 162.166 103.886 162.047 103.886 162.047C103.886 162.047 103.396 162.192 102.642 162.328C100.998 162.626 98.1102 162.868 96.4278 161.409C94.2768 159.542 99.929 152.757 101.339 151.128L101.65 150.775L101.117 145.862L99.733 133.123C99.733 133.123 98.8812 125.786 97.6034 121.851C97.2617 120.733 97.0152 119.587 96.8665 118.427C96.3917 114.834 96.6349 111.182 97.5821 107.683C97.9867 106.196 98.2435 104.673 98.3488 103.136C98.5617 99.2011 110.594 83.9947 113.576 82.6123C114.917 81.9877 115.996 80.9129 116.626 79.5753C116.833 79.1547 116.989 78.7105 117.09 78.2524C118.368 72.7228 121.601 74.9176 121.601 74.9176C122.38 79.2435 134.447 90.694 134.447 90.694L134.685 90.9322C135.882 92.1572 141.215 97.908 140.836 102.817C140.76 104.644 141.033 106.468 141.641 108.193C144.095 115.911 145.506 123.922 145.836 132.013L146.113 138.227Z" fill="#DCE6F2"/>
<path opacity="0.1" d="M129.016 108.644C129.016 108.644 126.035 115.875 123.798 117.045C121.562 118.214 130.081 119.512 129.016 108.644Z" fill="black"/>
<path opacity="0.1" d="M131.252 122.149C131.252 122.149 124.437 123 124.437 124.276C124.437 125.552 131.252 122.149 131.252 122.149Z" fill="black"/>
<path opacity="0.1" d="M138.387 130.443C138.387 130.443 128.484 151.498 125.715 152.136C122.947 152.774 138.387 130.443 138.387 130.443Z" fill="black"/>
<path opacity="0.1" d="M134.259 91.7617L126.069 95.3176L116.183 80.4047C116.39 79.9841 116.546 79.5399 116.647 79.0819C117.925 73.5523 121.158 75.7471 121.158 75.7471C121.937 80.0729 134.004 91.5235 134.004 91.5235L134.259 91.7617Z" fill="black"/>
<path d="M134.685 90.911L126.495 94.4669L116.609 79.554C116.816 79.1334 116.972 78.6892 117.073 78.2312C118.351 72.7016 121.584 74.8964 121.584 74.8964C122.363 79.2222 134.43 90.6728 134.43 90.6728L134.685 90.911Z" fill="#DCE6F2"/>
<path opacity="0.1" d="M145.202 167.577C145.202 167.577 136.019 166.726 127.449 165.79L142.825 169.81V174.489C142.152 175.097 141.569 175.412 141.189 175.25C139.418 174.506 124.957 172.166 124.957 172.166C124.957 172.166 116.558 167.913 107.494 162.809C107.274 162.687 107.06 162.553 106.855 162.409C105.798 161.692 104.887 160.781 104.171 159.725C102.497 157.304 101.68 154.195 101.326 151.145C101.127 149.397 101.053 147.638 101.105 145.879C101.149 143.886 101.331 141.897 101.65 139.929C100.773 132.304 100.347 124.634 100.372 116.96C100.478 105.05 111.659 100.796 111.659 100.796C132.211 98.9884 125.839 132.166 125.839 132.166C125.839 132.166 124.65 141.524 124.327 142.481C124.003 143.438 122.84 145.033 122.998 147.266C123.155 149.499 127.082 152.17 127.082 152.17C127.082 152.17 130.916 153.965 132.496 156.624C133.646 158.585 141.117 161.243 145.338 163.14L145.202 167.577Z" fill="black"/>
<path opacity="0.1" d="M152.085 54.858C152.093 55.5586 151.947 56.2525 151.659 56.8912C151.441 57.4124 151.187 57.9183 150.901 58.4054C150.453 59.3016 149.816 60.0908 149.035 60.7194C148.051 61.4212 146.808 61.6168 145.628 61.9018C144.448 62.1868 143.221 62.642 142.548 63.6458C142.183 64.2911 141.94 64.9974 141.828 65.73C141.716 66.462 141.423 67.1547 140.976 67.7462C140.744 68.035 140.422 68.2385 140.061 68.3247C139.701 68.4109 139.321 68.375 138.983 68.2226C138.627 67.9828 138.357 67.6355 138.212 67.2315C137.727 66.1384 137.603 64.9261 137.407 63.7479C137.211 62.5696 136.934 61.3574 136.21 60.4088C135.486 59.4603 134.204 58.835 133.067 59.2051C132.686 59.3514 132.339 59.573 132.046 59.8566C131.754 60.1402 131.521 60.48 131.363 60.8555C131.048 61.6072 130.832 62.3964 130.72 63.2034C130.192 66.0902 129.568 68.9599 128.85 71.8126C128.828 71.9295 128.78 72.04 128.709 72.1359C128.596 72.2486 128.443 72.3127 128.284 72.3145C127.329 72.4421 126.414 71.7743 125.451 71.8466C125.352 71.8532 125.254 71.8689 125.157 71.8934C123.601 69.1922 122.914 66.0786 123.189 62.9743C123.464 59.87 124.688 56.9253 126.695 54.539L126.771 54.5177C127.412 54.2907 127.994 53.9246 128.475 53.4458C129.09 52.8313 129.659 52.1732 130.179 51.4764L130.52 51.051C131.499 49.8732 132.614 48.8152 133.842 47.8992C134.177 47.6249 134.562 47.417 134.975 47.2867C135.329 47.2179 135.691 47.2064 136.048 47.2526C137.519 47.429 139.002 47.4845 140.482 47.4185C141.514 47.2566 142.553 47.1515 143.596 47.1038C146.292 47.1803 148.592 49.0817 150.296 51.1659C151.212 52.2335 152.03 53.4628 152.085 54.858Z" fill="black"/>
<path d="M123.138 57.2527C122.546 58.2225 121.477 58.8818 121.077 59.9452C120.489 61.4892 121.481 63.4118 120.57 64.79C120.267 65.2536 119.769 65.5982 119.599 66.1298C119.309 67.0273 120.101 67.9844 119.897 68.9074C119.692 69.8304 118.474 70.6088 118.798 71.5106C118.989 71.9038 119.325 72.2085 119.735 72.3613C120.38 72.731 121.123 72.8957 121.865 72.8334C123.028 72.642 123.892 71.5021 125.072 71.417C126.03 71.3489 126.946 72.0125 127.9 71.8891C128.06 71.8836 128.212 71.8183 128.326 71.7062C128.399 71.6114 128.447 71.5005 128.467 71.383C129.182 68.5331 129.807 65.6634 130.341 62.7738C130.45 61.9665 130.664 61.1771 130.98 60.4258C131.139 60.0511 131.372 59.712 131.665 59.4286C131.957 59.1452 132.304 58.9231 132.684 58.7755C133.821 58.4097 135.099 59.0307 135.827 59.9792C136.555 60.9278 136.832 62.14 137.028 63.3183C137.224 64.4965 137.348 65.7087 137.829 66.8019C137.975 67.2073 138.247 67.5559 138.604 67.7972C139.243 68.1673 140.103 67.8738 140.593 67.3208C141.042 66.7291 141.335 66.0344 141.445 65.3004C141.556 64.5691 141.8 63.8642 142.165 63.2204C142.838 62.2166 144.069 61.7615 145.244 61.4765C146.42 61.1915 147.659 60.9916 148.652 60.2897C149.432 59.6618 150.068 58.8742 150.517 57.9801C151.148 56.8826 151.736 55.6917 151.685 54.4284C151.629 53.0502 150.811 51.8209 149.938 50.749C148.234 48.6648 145.93 46.7635 143.234 46.6912C142.191 46.7347 141.151 46.8398 140.12 47.0059C138.64 47.0724 137.157 47.0155 135.686 46.8358C135.329 46.7931 134.967 46.806 134.613 46.8741C134.199 47.0002 133.815 47.2086 133.484 47.4866C132.255 48.4011 131.138 49.4577 130.158 50.6342C129.525 51.4715 128.84 52.2671 128.105 53.0162C127.623 53.4957 127.041 53.8632 126.401 54.0923C125.975 54.2114 125.549 54.1263 125.144 54.2582C123.888 54.6538 123.722 56.2914 123.138 57.2527Z" fill="#965D7B"/>
<path opacity="0.1" d="M164.156 68.818C160.748 69.4433 157.925 66.6913 156.361 64.6836C155.881 64.0739 155.444 63.4314 155.054 62.761L166.75 64.9643L167.223 65.0536C167.223 65.0536 169.374 67.8652 164.156 68.818Z" fill="black"/>
<g opacity="0.1">
<path opacity="0.1" d="M119.897 67.6909C119.945 67.1346 119.86 66.5749 119.65 66.0575C119.65 66.1 119.611 66.1426 119.599 66.1851C119.416 66.7551 119.663 67.3463 119.82 67.9376C119.854 67.8581 119.88 67.7755 119.897 67.6909V67.6909Z" fill="black"/>
<path opacity="0.1" d="M120.911 60.7278C120.867 61.316 120.878 61.9069 120.945 62.493C120.988 61.9048 120.977 61.3139 120.911 60.7278Z" fill="black"/>
<path opacity="0.1" d="M150.492 56.7507C150.044 57.6469 149.407 58.4361 148.626 59.0647C147.642 59.7665 146.403 59.9622 145.219 60.2471C144.035 60.5321 142.812 60.9873 142.139 61.9911C141.775 62.6367 141.531 63.3429 141.419 64.0753C141.309 64.8092 141.016 65.5037 140.568 66.0958C140.078 66.6487 139.217 66.9465 138.578 66.5722C138.221 66.3308 137.95 65.9823 137.803 65.5768C137.322 64.4837 137.194 63.2757 137.003 62.0932C136.811 60.9107 136.525 59.7027 135.801 58.7542C135.077 57.8056 133.795 57.1803 132.658 57.5504C132.278 57.6974 131.931 57.9192 131.638 58.2027C131.345 58.4863 131.113 58.8257 130.954 59.2008C130.639 59.952 130.424 60.7415 130.315 61.5487C129.784 64.4383 129.16 67.308 128.441 70.1579C128.421 70.2754 128.373 70.3864 128.301 70.4812C128.187 70.5932 128.035 70.6585 127.875 70.6641C126.921 70.7874 126.005 70.1239 125.046 70.1919C123.867 70.277 123.002 71.4169 121.839 71.6041C121.097 71.6705 120.353 71.5056 119.709 71.132C119.413 71.0048 119.148 70.8163 118.93 70.579C118.83 70.7215 118.764 70.8848 118.737 71.0564C118.71 71.2281 118.722 71.4037 118.772 71.5701C118.96 71.9661 119.297 72.2719 119.709 72.4208C120.353 72.7944 121.097 72.9594 121.839 72.8929C123.002 72.7058 123.867 71.5658 125.046 71.4808C126.005 71.4127 126.921 72.0763 127.875 71.9529C128.035 71.9473 128.187 71.8821 128.301 71.77C128.373 71.6752 128.421 71.5643 128.441 71.4467C129.157 68.611 129.781 65.7413 130.315 62.8376C130.424 62.0303 130.639 61.2408 130.954 60.4896C131.113 60.1145 131.345 59.7751 131.638 59.4916C131.931 59.208 132.278 58.9862 132.658 58.8392C133.795 58.4692 135.073 59.0944 135.801 60.043C136.53 60.9915 136.807 62.2038 137.003 63.382C137.198 64.5602 137.322 65.7725 137.803 66.8657C137.95 67.2711 138.221 67.6196 138.578 67.861C139.217 68.2311 140.078 67.9376 140.568 67.3846C141.016 66.7925 141.309 66.098 141.419 65.3642C141.531 64.6317 141.775 63.9255 142.139 63.2799C142.812 62.2761 144.043 61.8252 145.219 61.536C146.394 61.2467 147.634 61.0553 148.626 60.3535C149.407 59.7249 150.044 58.9357 150.492 58.0396C151.122 56.9464 151.71 55.7554 151.659 54.4921C151.651 54.3297 151.634 54.1678 151.608 54.0072C151.402 54.9808 151.024 55.9098 150.492 56.7507V56.7507Z" fill="black"/>
</g>
<path opacity="0.1" d="M151.676 56.8784C152.768 58.8178 153.416 60.9752 153.571 63.1949C149.776 61.0681 146.207 58.7329 144.405 57.9205C141.266 56.5041 129.527 56.7167 125.115 56.8486C125.576 56.0252 126.115 55.2475 126.725 54.5262C127.733 53.3302 128.918 52.2946 130.239 51.4551C131.988 50.3466 133.945 49.6059 135.99 49.2784C138.036 48.9508 140.127 49.0433 142.135 49.5501C144.144 50.0569 146.027 50.9674 147.672 52.2259C149.316 53.4845 150.686 55.0647 151.697 56.8699L151.676 56.8784Z" fill="black"/>
<path opacity="0.1" d="M165.221 67.0145C163.172 67.644 159.828 66.4275 156.361 64.6836C155.881 64.0739 155.444 63.4314 155.054 62.761L166.75 64.9643C167.525 65.4918 167.721 66.2446 165.221 67.0145Z" fill="black"/>
<path d="M139.294 42.1314C139.294 42.1314 128.113 41.4933 124.97 47.5546L124.463 52.9268L123.611 52.8333L123.441 56.4871C123.441 56.4871 140.529 55.7427 144.418 57.4951C148.307 59.2476 160.391 68.078 165.234 66.5892C170.076 65.1005 164.808 63.7181 164.808 63.7181C164.808 63.7181 158.142 60.898 158.142 58.6861C158.142 56.4743 156.489 44.7898 139.294 42.1314Z" fill="#444053"/>
<path opacity="0.1" d="M117.729 241.282C117.729 241.282 124.863 248.194 127.951 247.662C127.951 247.662 119.22 246.918 117.729 241.282Z" fill="black"/>
<path opacity="0.1" d="M116.238 244.485C116.238 244.485 116.877 248.041 118.581 247.692C120.285 247.343 116.238 244.485 116.238 244.485Z" fill="black"/>
<path opacity="0.1" d="M127.419 303.916C127.419 303.916 117.29 311.785 118.998 311.997C120.706 312.21 127.419 303.916 127.419 303.916Z" fill="black"/>
<path d="M140.968 147.738L173.765 142.408V173.417L142.604 171.788L140.968 147.738Z" fill="#6F5F90"/>
<path opacity="0.05" d="M140.968 147.738L173.765 142.408V173.417L142.604 171.788L140.968 147.738Z" fill="black"/>
<path d="M173.765 142.408L213.096 145.348L210.92 172.332L173.765 173.417V142.408Z" fill="#6F5F90"/>
<path opacity="0.1" d="M173.765 142.408L213.096 145.348L210.92 172.332L173.765 173.417V142.408Z" fill="black"/>
<path d="M185.857 132.944L173.765 142.408L213.096 145.348L219.523 135.662L185.857 132.944Z" fill="#6F5F90"/>
<path d="M129.093 137.402L158.619 133.812L173.765 142.409L140.968 147.738L129.093 137.402Z" fill="#6F5F90"/>
<path d="M180.955 150.461V192.856L165.591 191.282L158.908 190.601L156.872 190.389L150.194 189.704L140.968 188.759V147.738L173.761 149.967L180.955 150.461Z" fill="#6F5F90"/>
<path d="M213.096 145.348V186.692L200.782 189.053L194.794 190.201L180.955 192.856V150.461L213.096 145.348Z" fill="#6F5F90"/>
<path opacity="0.05" d="M213.096 145.348V186.692L200.782 189.053L194.794 190.201L180.955 192.856V150.461L213.096 145.348Z" fill="black"/>
<path d="M129.093 156.662L140.968 147.738L180.955 150.461L175.068 160.363L129.093 156.662Z" fill="#6F5F90"/>
<path opacity="0.1" d="M129.093 156.662L140.968 147.738L180.955 150.461L175.068 160.363L129.093 156.662Z" fill="white"/>
<path d="M213.096 145.348L180.955 150.461L191.416 159.818L225.844 154.051L213.096 145.348Z" fill="#6F5F90"/>
<path opacity="0.1" d="M213.096 145.348L180.955 150.461L191.416 159.818L225.844 154.051L213.096 145.348Z" fill="white"/>
<path opacity="0.1" d="M200.782 189.053L194.794 190.201V181.367L200.403 179.955L200.782 189.053Z" fill="white"/>
<path opacity="0.1" d="M165.591 185.437V191.282L158.908 190.601V185.437H165.591Z" fill="white"/>
<path opacity="0.1" d="M156.872 187.279V190.389L150.194 189.704V187.279H156.872Z" fill="white"/>
<path opacity="0.1" d="M176.934 182.337C172.355 188.185 157.234 184.144 157.234 184.144L145.998 172.439L144.473 170.852L147.455 165.322C147.455 165.322 148.307 165.603 149.729 166.097C157.26 168.725 180.789 177.415 176.934 182.337Z" fill="black"/>
<path d="M176.508 181.486C171.929 187.334 156.809 183.294 156.809 183.294L145.572 171.588L144.047 170.001L147.029 164.472C147.029 164.472 147.881 164.752 149.304 165.246C156.834 167.875 180.363 176.564 176.508 181.486Z" fill="#EFB7B9"/>
<path opacity="0.1" d="M149.287 165.246C148.665 167.032 147.084 169.678 145.555 171.588L144.03 170.001L147.012 164.472C147.012 164.472 147.868 164.752 149.287 165.246Z" fill="black"/>
<path d="M112.085 99.0949C112.085 99.0949 100.904 103.348 100.798 115.258C100.772 122.933 101.199 130.603 102.076 138.227C102.076 138.227 98.8812 155.986 107.932 161.09C116.983 166.195 125.396 170.448 125.396 170.448C125.396 170.448 139.856 172.787 141.632 173.532C143.409 174.276 149.58 164.706 148.622 163.111C147.664 161.516 134.498 157.581 132.935 154.923C131.372 152.264 127.521 150.473 127.521 150.473C127.521 150.473 123.594 147.798 123.436 145.565C123.279 143.332 124.437 141.737 124.765 140.78C125.093 139.823 126.282 130.465 126.282 130.465C126.282 130.465 132.637 97.2658 112.085 99.0949Z" fill="#DCE6F2"/>
<path opacity="0.1" d="M117.196 138.525C117.196 138.525 102.076 140.227 103.247 145.543C103.247 145.543 108.993 140.18 117.196 138.525Z" fill="black"/>
<path opacity="0.1" d="M117.196 140.652C117.196 140.652 108.614 146.926 110.19 147.351C111.766 147.777 117.196 140.652 117.196 140.652Z" fill="black"/>
<path opacity="0.1" d="M121.03 143.204C121.03 143.204 118.581 147.602 119.965 147.372C121.349 147.143 121.03 143.204 121.03 143.204Z" fill="black"/>
<path d="M278.465 47.8055C278.465 47.8055 262.279 46.8314 264.17 58.1714C264.17 58.1714 263.791 60.1748 265.61 61.085C265.61 61.085 265.64 60.2343 267.271 60.5278C267.852 60.6255 268.442 60.654 269.03 60.6129C269.827 60.5598 270.584 60.2476 271.185 59.7239V59.7239C271.185 59.7239 275.739 57.8481 277.511 50.4129C277.511 50.4129 278.822 48.7881 278.788 48.3712L276.054 49.5409C276.054 49.5409 276.987 51.5103 276.25 53.1479C276.25 53.1479 276.165 49.6132 275.636 49.6941C275.53 49.6941 274.218 50.3789 274.218 50.3789C274.218 50.3789 275.824 53.8072 274.61 56.3041C274.61 56.3041 275.07 52.076 273.715 50.6256L271.79 51.7485C271.79 51.7485 273.669 55.2917 272.395 58.1841C272.395 58.1841 272.723 53.7477 271.386 52.0207L269.639 53.3776C269.639 53.3776 271.407 56.874 270.329 59.273C270.329 59.273 270.189 54.1092 269.26 53.7179C269.26 53.7179 267.735 55.062 267.505 55.615C267.505 55.615 268.711 58.1671 267.961 59.49C267.961 59.49 267.501 56.0488 267.109 56.0318C267.109 56.0318 265.589 58.3117 265.431 59.86C265.505 58.4166 265.955 57.0176 266.739 55.8021C265.862 55.9677 265.054 56.3862 264.413 57.0059C264.413 57.0059 264.647 55.3938 267.113 55.2534C267.113 55.2534 268.391 53.5222 268.706 53.4159C268.706 53.4159 266.253 53.2117 264.766 53.871C264.766 53.871 266.074 52.3525 269.158 53.0203L270.862 51.6167C270.862 51.6167 267.633 51.1913 266.261 51.6634C266.261 51.6634 267.837 50.3193 271.326 51.2976L273.2 50.179C273.2 50.179 270.448 49.5835 268.809 49.8004C268.809 49.8004 270.538 48.8689 273.749 49.877L275.091 49.2772C275.091 49.2772 273.072 48.8816 272.484 48.8178C271.897 48.754 271.863 48.5924 271.863 48.5924C273.14 48.3801 274.451 48.5274 275.649 49.0177C275.649 49.0177 278.524 47.9841 278.465 47.8055Z" fill="#6F5F90"/>
<path opacity="0.1" d="M229.316 94.4541C229.316 94.4541 233.043 78.6777 221.525 78.6224C221.525 78.6224 219.613 77.9078 218.407 79.5412C218.407 79.5412 219.23 79.7156 218.672 81.2724C218.479 81.8229 218.35 82.3938 218.288 82.9738C218.206 83.7645 218.384 84.5604 218.795 85.2409V85.2409C218.795 85.2409 219.873 90.0474 226.888 93.0589C226.888 93.0589 228.268 94.6242 228.685 94.6413L228.004 91.7531C228.004 91.7531 225.9 92.3358 224.409 91.3277C224.409 91.3277 227.914 91.8424 227.919 91.3277C227.919 91.2214 227.493 89.8135 227.493 89.8135C227.493 89.8135 223.834 90.8088 221.576 89.1882C221.576 89.1882 225.67 90.3622 227.335 89.2775L226.568 87.1848C226.568 87.1848 222.735 88.4311 220.111 86.6829C220.111 86.6829 224.435 87.7633 226.368 86.7424L225.325 84.7943C225.325 84.7943 221.576 85.9343 219.391 84.4668C219.391 84.4668 224.503 85.2069 225.056 84.3647C225.056 84.3647 223.992 82.6335 223.485 82.3102C223.485 82.3102 220.776 83.0674 219.583 82.1018C219.583 82.1018 223.054 82.2337 223.135 81.8679C223.135 81.8679 221.146 79.9836 219.63 79.5582C221.043 79.8795 222.348 80.5626 223.417 81.5403C223.401 80.6489 223.126 79.7813 222.624 79.0435C222.624 79.0435 224.175 79.5539 223.902 82.021C223.902 82.021 225.393 83.5523 225.44 83.9011C225.44 83.9011 226.057 81.5233 225.661 79.9453C225.661 79.9453 226.939 81.4936 225.734 84.4072L226.824 86.3426C226.824 86.3426 227.812 83.2375 227.561 81.8083C227.561 81.8083 228.621 83.5863 227.058 86.853L227.846 88.8905C227.846 88.8905 228.898 86.2788 228.966 84.6369C228.966 84.6369 229.593 86.5 228.046 89.4902L228.413 90.9109C228.413 90.9109 229.145 88.9926 229.307 88.4226C229.469 87.8526 229.635 87.8484 229.635 87.8484C229.629 89.1424 229.261 90.4091 228.575 91.5064C228.575 91.5064 229.133 94.4754 229.316 94.4541Z" fill="#6F5F90"/>
<path opacity="0.1" d="M193.869 99.8306C193.869 99.8306 180.87 90.1197 176.223 100.639C176.223 100.639 174.804 102.106 175.822 103.863C175.822 103.863 176.308 103.178 177.526 104.314C177.958 104.715 178.435 105.063 178.949 105.352C179.644 105.739 180.448 105.888 181.236 105.777V105.777C181.236 105.777 186.075 106.709 191.646 101.472C191.646 101.472 193.635 100.834 193.822 100.46L190.888 99.9454C190.888 99.9454 190.581 102.102 189.069 103.068C189.069 103.068 190.939 100.065 190.453 99.8476C190.355 99.8008 188.89 99.6349 188.89 99.6349C188.89 99.6349 188.345 103.387 185.96 104.803C185.96 104.803 188.673 101.523 188.336 99.5669L186.109 99.4478C186.109 99.4478 185.73 103.442 183.072 105.16C183.072 105.16 185.785 101.634 185.627 99.4563L183.421 99.6349C183.421 99.6349 182.974 103.518 180.755 104.931C180.755 104.931 183.476 100.541 182.918 99.7072C182.918 99.7072 180.904 99.9922 180.405 100.324C180.405 100.324 180.018 103.106 178.655 103.812C178.655 103.812 180.167 100.686 179.86 100.469C179.86 100.469 177.334 101.536 176.342 102.753C177.2 101.588 178.349 100.667 179.673 100.082C178.849 99.7396 177.943 99.645 177.066 99.8093C177.066 99.8093 178.148 98.5928 180.286 99.8306C180.286 99.8306 182.288 99.0777 182.629 99.1713C182.629 99.1713 180.691 97.6528 179.085 97.389C179.085 97.389 181.019 96.8361 183.212 99.0905L185.423 98.865C185.423 98.865 182.965 96.7383 181.555 96.381C181.555 96.381 183.613 96.1215 185.985 98.8523L188.166 98.9501C188.166 98.9501 186.194 96.9424 184.707 96.2193C184.707 96.2193 186.662 96.3895 188.792 98.9969L190.245 99.2308C190.245 99.2308 188.775 97.7931 188.315 97.4188C187.855 97.0445 187.919 96.8871 187.919 96.8871C189.104 97.4111 190.12 98.2534 190.854 99.3202C190.854 99.3202 193.814 100.005 193.869 99.8306Z" fill="#6F5F90"/>
<path opacity="0.1" d="M237.149 9.60872C237.149 9.60872 224.149 -0.106375 219.502 10.4169C219.502 10.4169 218.084 11.8844 219.102 13.6411C219.102 13.6411 219.587 12.9563 220.806 14.0919C221.239 14.4907 221.718 14.8376 222.232 15.1256C222.928 15.5127 223.731 15.6621 224.52 15.5509V15.5509C224.52 15.5509 229.358 16.4824 234.93 11.2421C234.93 11.2421 236.919 10.6083 237.102 10.2297L234.167 9.72356C234.167 9.72356 233.865 11.8801 232.348 12.8457C232.348 12.8457 234.223 9.84266 233.737 9.62573C233.639 9.57894 232.174 9.41305 232.174 9.41305C232.174 9.41305 231.612 13.1732 229.226 14.5811C229.226 14.5811 231.935 11.3016 231.603 9.345L229.375 9.2259C229.375 9.2259 228.992 13.22 226.338 14.9341C226.338 14.9341 229.052 11.408 228.894 9.23015L226.692 9.4088C226.692 9.4088 226.24 13.2965 224.021 14.7087C224.021 14.7087 226.747 10.3191 226.189 9.48536C226.189 9.48536 224.175 9.77035 223.676 10.1021C223.676 10.1021 223.289 12.8839 221.926 13.59C221.926 13.59 223.438 10.4637 223.131 10.2425C223.131 10.2425 220.605 11.3144 219.613 12.5309C220.47 11.3649 221.619 10.4438 222.944 9.85967C222.119 9.51516 221.211 9.42049 220.333 9.58745C220.333 9.58745 221.419 8.37094 223.557 9.60872C223.557 9.60872 225.559 8.85158 225.9 8.94942C225.9 8.94942 223.962 7.4309 222.356 7.16293C222.356 7.16293 224.285 6.61422 226.479 8.86435L228.69 8.63891C228.69 8.63891 226.236 6.51214 224.822 6.15059C224.822 6.15059 226.879 5.89537 229.256 8.62615L231.437 8.71972C231.437 8.71972 229.465 6.71205 227.974 5.99321C227.974 5.99321 229.933 6.16335 232.063 8.77077L233.511 9.00471C233.511 9.00471 232.037 7.58403 231.577 7.21822C231.117 6.85242 231.181 6.69079 231.181 6.69079C232.367 7.21422 233.383 8.05664 234.116 9.12381C234.116 9.12381 237.076 9.77035 237.149 9.60872Z" fill="#6F5F90"/>
<path opacity="0.1" d="M286.821 21.9142C286.821 21.9142 281.625 6.55467 271.824 12.5904C271.824 12.5904 269.822 13.0158 269.665 15.0192C269.665 15.0192 270.453 14.73 270.802 16.3463C270.932 16.9213 271.128 17.4794 271.386 18.0095C271.738 18.7229 272.311 19.3033 273.021 19.6641V19.6641C273.021 19.6641 276.48 23.1733 284.044 22.012C284.044 22.012 286.042 22.616 286.408 22.4076L284.279 20.3191C284.279 20.3191 282.805 21.9227 281.007 21.8589C281.007 21.8589 284.257 20.4467 283.989 19.9916C283.934 19.9023 282.822 18.9367 282.822 18.9367C282.822 18.9367 280.241 21.7143 277.472 21.5314C277.472 21.5314 281.565 20.3659 282.4 18.5539L280.637 17.197C280.637 17.197 278.056 20.2681 274.891 20.1745C274.891 20.1745 279.15 18.8091 280.228 16.9205L278.311 15.8189C278.311 15.8189 275.756 18.7666 273.106 18.673C273.106 18.673 277.843 16.6015 277.855 15.5977C277.855 15.5977 276.037 14.6917 275.436 14.6832C275.436 14.6832 273.536 16.7547 272.029 16.5675C272.029 16.5675 275.044 14.8448 274.917 14.4918C274.917 14.4918 272.233 13.9431 270.721 14.3854C272.089 13.9099 273.557 13.7999 274.98 14.0664C274.494 13.3174 273.8 12.7261 272.983 12.365C272.983 12.365 274.567 11.9779 275.628 14.2068C275.628 14.2068 277.706 14.7215 277.928 14.9894C277.928 14.9894 277.195 12.6457 276.024 11.5143C276.024 11.5143 277.928 12.1566 278.448 15.2659L280.398 16.3293C280.398 16.3293 279.593 13.1774 278.622 12.0758C278.622 12.0758 280.466 13.0286 280.867 16.6228L282.613 17.9371C282.613 17.9371 282.128 15.1638 281.31 13.7261C281.31 13.7261 282.826 14.9767 283.099 18.3327L284.159 19.3451C284.159 19.3451 283.767 17.3289 283.606 16.7589C283.444 16.1889 283.576 16.1507 283.576 16.1507C284.253 17.2541 284.611 18.5231 284.611 19.8172C284.611 19.8172 286.672 22.0248 286.821 21.9142Z" fill="#6F5F90"/>
<path opacity="0.1" d="M252.908 22.6713C252.908 22.6713 236.765 20.8763 238.099 32.3141C238.099 32.3141 237.617 34.2962 239.376 35.2915C239.376 35.2915 239.449 34.4408 241.08 34.8236C241.657 34.9475 242.245 35.006 242.835 34.998C243.631 34.9837 244.402 34.7104 245.029 34.2196V34.2196C245.029 34.2196 249.676 32.5735 251.844 25.2362C251.844 25.2362 253.232 23.6836 253.202 23.2625L250.412 24.2919C250.412 24.2919 251.264 26.3038 250.412 27.9031C250.412 27.9031 250.502 24.3684 249.986 24.4237C249.88 24.4237 248.534 25.0363 248.534 25.0363C248.534 25.0363 249.965 28.5454 248.628 30.9912C248.628 30.9912 249.301 26.7887 248.019 25.2745L246.038 26.2953C246.038 26.2953 247.742 29.9321 246.315 32.7564C246.315 32.7564 246.869 28.3413 245.621 26.5505L243.81 27.8266C243.81 27.8266 245.395 31.4038 244.198 33.7475C244.198 33.7475 244.322 28.5837 243.414 28.1456C243.414 28.1456 241.821 29.4217 241.561 29.9491C241.561 29.9491 242.639 32.5438 241.826 33.8411C241.826 33.8411 241.54 30.383 241.165 30.3489C241.165 30.3489 239.53 32.548 239.291 34.1005C239.439 32.6612 239.962 31.2855 240.808 30.1107C239.924 30.2327 239.095 30.6097 238.422 31.1954C238.422 31.1954 238.738 29.6003 241.208 29.5833C241.208 29.5833 242.55 27.9202 242.912 27.8308C242.912 27.8308 240.471 27.5033 238.95 28.086C238.95 28.086 240.335 26.6313 243.376 27.4778L245.169 26.1634C245.169 26.1634 241.928 25.5084 240.556 25.9338C240.556 25.9338 242.2 24.6577 245.633 25.8274L247.563 24.8023C247.563 24.8023 244.841 24.0707 243.193 24.2026C243.193 24.2026 244.969 23.3519 248.125 24.5301L249.497 23.9984C249.497 23.9984 247.499 23.5007 246.911 23.4071C246.323 23.3136 246.302 23.1519 246.302 23.1519C247.59 23.0044 248.893 23.2164 250.067 23.7644C250.067 23.7644 252.938 22.8499 252.908 22.6713Z" fill="#6F5F90"/>
<path opacity="0.1" d="M274.248 141.303C274.248 141.303 265.546 127.615 257.466 135.807C257.466 135.807 255.617 136.658 255.941 138.678C255.941 138.678 256.644 138.21 257.368 139.699C257.628 140.227 257.951 140.721 258.331 141.171C258.838 141.785 259.534 142.215 260.311 142.396V142.396C260.311 142.396 264.507 144.982 271.577 142.055C271.577 142.055 273.66 142.166 273.967 141.881L271.411 140.35C271.411 140.35 270.359 142.264 268.6 142.625C268.6 142.625 271.42 140.499 271.041 140.107C270.968 140.031 269.656 139.359 269.656 139.359C269.656 139.359 267.812 142.668 265.077 143.149C265.077 143.149 268.779 141.043 269.162 139.095L267.122 138.198C267.122 138.198 265.346 141.792 262.253 142.451C262.253 142.451 266.044 140.116 266.662 138.023L264.532 137.411C264.532 137.411 262.735 140.886 260.158 141.417C260.158 141.417 264.264 138.278 264.038 137.3C264.038 137.3 262.053 136.853 261.483 136.99C261.483 136.99 260.132 139.452 258.607 139.631C258.607 139.631 261.129 137.24 260.92 136.926C260.92 136.926 258.181 137.032 256.818 137.819C258.034 137.032 259.435 136.578 260.882 136.5C260.234 135.888 259.421 135.479 258.544 135.322C258.544 135.322 259.987 134.569 261.525 136.483C261.525 136.483 263.655 136.483 263.949 136.696C263.949 136.696 262.671 134.569 261.27 133.774C261.27 133.774 263.271 133.944 264.515 136.841L266.666 137.411C266.666 137.411 265.129 134.539 263.932 133.719C263.932 133.719 265.946 134.203 267.194 137.602L269.205 138.453C269.205 138.453 268.072 135.879 266.934 134.676C266.934 134.676 268.706 135.526 269.767 138.721L271.045 139.457C271.045 139.457 270.193 137.589 269.89 137.075C269.588 136.56 269.707 136.441 269.707 136.441C270.629 137.35 271.279 138.497 271.586 139.754C271.586 139.754 274.133 141.447 274.248 141.303Z" fill="#6F5F90"/>
<path d="M279.078 100.694C279.078 100.694 279.504 84.4881 268.229 86.7722C268.229 86.7722 266.21 86.4617 265.358 88.3078C265.358 88.3078 266.21 88.3078 265.972 89.9454C265.894 90.5293 265.885 91.1204 265.946 91.7064C266.023 92.5011 266.36 93.2485 266.905 93.8331C266.905 93.8331 268.936 98.3164 276.437 99.8391C276.437 99.8391 278.103 101.094 278.52 101.026L277.242 98.3376C277.242 98.3376 275.304 99.333 273.639 98.6566C273.639 98.6566 277.174 98.4482 277.076 97.9293C277.076 97.8229 276.343 96.5299 276.343 96.5299C276.343 96.5299 272.961 98.2525 270.427 97.1211C270.427 97.1211 274.687 97.4401 276.079 96.0407L274.891 94.1564C274.891 94.1564 271.407 96.147 268.468 94.9731C268.468 94.9731 272.919 95.1517 274.606 93.7608L273.187 92.0594C273.187 92.0594 269.75 93.9395 267.314 92.9441C267.314 92.9441 272.476 92.6336 272.851 91.6936C272.851 91.6936 271.454 90.2176 270.891 89.9922C270.891 89.9922 268.395 91.2682 267.032 90.5792C267.032 90.5792 270.44 90.0092 270.461 89.6306C270.461 89.6306 268.131 88.1887 266.56 88.0823C268.009 88.1082 269.426 88.513 270.67 89.2563C270.476 88.3869 270.032 87.593 269.392 86.9722C269.392 86.9722 271.015 87.1551 271.236 89.6094C271.236 89.6094 273.013 90.8088 273.128 91.1406C273.128 91.1406 273.251 88.6863 272.54 87.2231C272.54 87.2231 274.107 88.4779 273.519 91.5745L274.98 93.2504C274.98 93.2504 275.313 90.0092 274.78 88.6608C274.78 88.6608 276.177 90.1878 275.317 93.7013L276.497 95.5345C276.497 95.5345 276.999 92.7655 276.731 91.1364C276.731 91.1364 277.719 92.8378 276.816 96.0747L277.464 97.3933C277.464 97.3933 277.792 95.3644 277.834 94.7732C277.877 94.1819 278.039 94.1436 278.039 94.1436C278.295 95.4125 278.193 96.7276 277.745 97.942C277.745 97.942 278.891 100.749 279.078 100.694Z" fill="#6F5F90"/>
<path opacity="0.1" d="M255.903 336C262.238 336 267.373 335.133 267.373 334.064C267.373 332.996 262.238 332.129 255.903 332.129C249.568 332.129 244.432 332.996 244.432 334.064C244.432 335.133 249.568 336 255.903 336Z" fill="#6F5F90"/>
<path opacity="0.1" d="M39.6717 320.947C46.0067 320.947 51.1422 320.08 51.1422 319.011C51.1422 317.943 46.0067 317.076 39.6717 317.076C33.3367 317.076 28.2012 317.943 28.2012 319.011C28.2012 320.08 33.3367 320.947 39.6717 320.947Z" fill="#6F5F90"/>
<path d="M204.848 290.466C214.307 290.466 221.975 289.171 221.975 287.574C221.975 285.976 214.307 284.681 204.848 284.681C195.389 284.681 187.721 285.976 187.721 287.574C187.721 289.171 195.389 290.466 204.848 290.466Z" fill="#6F5F90"/>
<path d="M211.948 282.839C212.73 282.205 213.299 281.347 213.579 280.381C213.792 279.402 213.375 278.233 212.442 277.875C211.394 277.476 210.274 278.199 209.422 278.93C208.57 279.662 207.604 280.5 206.492 280.347C207.063 279.829 207.49 279.173 207.731 278.442C207.973 277.71 208.022 276.929 207.872 276.174C207.824 275.861 207.691 275.567 207.489 275.323C206.905 274.702 205.853 274.97 205.154 275.459C202.94 277.016 202.322 280.019 202.309 282.724C202.088 281.75 202.275 280.734 202.271 279.747C202.267 278.76 201.99 277.62 201.142 277.101C200.622 276.812 200.034 276.665 199.438 276.676C198.442 276.642 197.33 276.74 196.653 277.467C195.801 278.369 196.027 279.887 196.759 280.87C197.492 281.852 198.612 282.486 199.643 283.175C200.468 283.667 201.172 284.337 201.704 285.136C201.765 285.248 201.815 285.364 201.853 285.485H208.098C209.496 284.782 210.791 283.892 211.948 282.839V282.839Z" fill="#6F5F90"/>
<path d="M31.9708 310.015C31.9708 310.015 38.5089 309.815 40.4895 308.412C42.4701 307.008 50.5544 305.336 51.0442 307.586C51.534 309.836 60.8748 318.769 53.4891 318.828C46.1033 318.888 36.3281 317.68 34.3603 316.48C32.3924 315.281 31.9708 310.015 31.9708 310.015Z" fill="#A8A8A8"/>
<path opacity="0.2" d="M53.6126 318.046C46.2269 318.105 36.4516 316.897 34.4838 315.698C32.9845 314.788 32.3882 311.517 32.188 310.007H31.9708C31.9708 310.007 32.3967 315.277 34.3518 316.472C36.3068 317.667 46.0948 318.88 53.4806 318.82C55.6102 318.82 56.3471 318.046 56.3088 316.923C56.0106 317.608 55.1971 318.033 53.6126 318.046Z" fill="black"/>
<defs>
<linearGradient id="paint0_linear" x1="94.9796" y1="184.357" x2="227.927" y2="184.357" gradientUnits="userSpaceOnUse">
<stop stop-color="#808080" stop-opacity="0.25"/>
<stop offset="0.54" stop-color="#808080" stop-opacity="0.12"/>
<stop offset="1" stop-color="#808080" stop-opacity="0.1"/>
</linearGradient>
</defs>
</svg>
