<svg width="375" height="412" viewBox="0 0 375 412" fill="none" xmlns="http://www.w3.org/2000/svg">
<g clip-path="url(#clip0)">
<rect width="488" height="412" transform="translate(-23)" fill="white"/>
<path d="M49.3644 394.658L58.8317 397.304L73.5473 362.052L59.5746 358.147L49.3644 394.658Z" fill="#FFB8B8"/>
<path d="M74.6333 411.198L44.8777 402.881L48.0919 391.386L67.5017 396.812C70.2456 397.579 72.5723 399.404 73.9701 401.887C75.3679 404.369 75.7221 407.304 74.955 410.048L74.6333 411.198Z" fill="#2F2E41"/>
<path d="M162.3 402.071L172.131 402.07L176.805 364.158L162.297 364.159L162.3 402.071Z" fill="#FFB8B8"/>
<path d="M191.091 411.195L160.194 411.198L160.193 399.263L180.347 399.261C181.758 399.261 183.155 399.539 184.458 400.078C185.762 400.618 186.946 401.409 187.943 402.406C188.941 403.404 189.733 404.588 190.272 405.891C190.812 407.194 191.09 408.59 191.091 410.001L191.091 411.195Z" fill="#2F2E41"/>
<path d="M89.2464 244.675L66.619 300.097L159.015 320.85L160.193 289.843L118.238 245.164L89.2464 244.675Z" fill="#B3B3B3"/>
<path d="M139.377 158.339C149.612 152.746 153.373 139.915 147.778 129.682C142.183 119.449 129.351 115.688 119.116 121.282C108.881 126.876 105.119 139.706 110.714 149.939C116.309 160.173 129.142 163.933 139.377 158.339Z" fill="#FFB8B8"/>
<path d="M144.337 241.609L102.515 224.492L98.7919 199.944C97.6954 192.769 99.4077 185.447 103.573 179.502C107.738 173.557 114.035 169.446 121.154 168.024L126.686 166.913C131.23 166.004 135.928 166.217 140.371 167.534C144.815 168.852 148.869 171.234 152.182 174.474C155.428 177.575 157.855 181.43 159.247 185.697C160.638 189.964 160.952 194.509 160.158 198.927C159.534 202.712 157.998 206.288 155.684 209.349C142.546 226.526 144.233 240.806 144.251 240.948L144.337 241.609Z" fill="#6F5F90"/>
<path d="M161.367 305.626L140.407 272.299L147.009 211.676L137.889 166.336L138.374 166.348C143.678 166.479 148.729 168.644 152.48 172.396C156.231 176.148 158.394 181.198 158.523 186.502L167.394 230.931L161.367 305.626Z" fill="#2F2E41"/>
<path d="M161.845 394.904C160.962 394.903 160.106 394.597 159.423 394.037C158.74 393.477 158.271 392.698 158.097 391.832L148.914 346.18C147.237 337.816 144.079 329.818 139.588 322.565L113.678 280.66C113.549 280.451 113.365 280.282 113.147 280.172C112.928 280.061 112.683 280.013 112.439 280.032C112.194 280.052 111.96 280.138 111.762 280.282C111.563 280.426 111.408 280.622 111.314 280.849L68.7158 383.162C68.3734 383.98 67.7581 384.654 66.9746 385.069C66.1911 385.484 65.2879 385.615 64.4186 385.44L53.039 383.12C52.0641 382.926 51.2039 382.358 50.6418 381.538C50.0798 380.718 49.8606 379.711 50.0308 378.732L59.314 324.032C61.2077 312.883 64.4343 302.002 68.9246 291.622L100.364 218.976L146.76 234.211L149.822 266.693L171.259 318.592C172.741 322.176 173.626 325.978 173.881 329.848L177.841 389.83C177.903 390.831 177.571 391.817 176.916 392.576C176.26 393.336 175.334 393.809 174.335 393.895L162.161 394.891C162.055 394.9 161.95 394.904 161.845 394.904Z" fill="#2F2E41"/>
<path d="M77.207 320.489L62.498 306.53L90.296 199.358C92.0596 192.62 95.3662 186.384 99.9547 181.143C104.543 175.902 110.288 171.799 116.734 169.16L117.28 168.938L115.795 234.165L77.207 320.489Z" fill="#2F2E41"/>
<path d="M124.324 160.852C119.106 156.336 117.52 147.912 120.717 141.702C123.914 135.492 131.559 132.149 138.096 134.102C144.252 135.942 151.251 129.805 150.501 123.225C149.751 116.645 141.564 112.358 135.99 115.627C131.768 113.933 127.147 113.495 122.682 114.364C118.217 115.234 114.098 117.374 110.821 120.528C104.272 126.943 101.787 137.429 104.728 146.247C107.668 155.065 115.875 161.741 124.324 160.852Z" fill="#2F2E41"/>
<path d="M105.848 332.473C105.591 332.572 105.322 332.641 105.049 332.679L71.4676 337.366C70.6552 337.482 69.8274 337.319 69.1204 336.902C68.4134 336.485 67.8693 335.841 67.5776 335.074L38.672 259.873C38.4848 259.386 38.4048 258.865 38.4375 258.344C38.4701 257.824 38.6146 257.316 38.8611 256.856C39.1076 256.397 39.4503 255.996 39.8659 255.68C40.2814 255.365 40.7601 255.143 41.2693 255.029L41.2695 255.029L72.8492 247.983C73.0929 247.929 73.3285 247.843 73.5501 247.727L104.266 231.671C104.503 231.547 104.754 231.449 105.013 231.38L138.815 222.37C139.681 222.138 140.602 222.235 141.401 222.642C142.199 223.049 142.818 223.738 143.138 224.575L168.342 290.145C168.564 290.717 168.636 291.335 168.553 291.942C168.469 292.549 168.233 293.124 167.866 293.615L159.149 305.318C158.739 305.868 158.181 306.291 157.54 306.537L138.491 313.857C138.354 313.909 138.222 313.972 138.095 314.045L106.352 332.234C106.191 332.327 106.022 332.407 105.848 332.473Z" fill="white"/>
<path d="M121.472 232.395L117.18 233.54L105.804 236.573L105.784 236.578L90.2106 244.719L84.4311 247.741L84.4284 247.742L75.7482 252.28L75.5101 252.333L66.4929 254.344L62.1348 255.318L44.3599 259.283L72.2643 331.88L90.5812 329.324L95.0724 328.696L104.645 327.359L104.756 327.344L135.516 309.718L154.231 302.527L162.776 291.055L138.486 227.861L121.472 232.395Z" fill="#E6E6E6"/>
<path d="M142.488 238.272L49.9507 273.829L51.5354 277.951L144.073 242.395L142.488 238.272Z" fill="white"/>
<path d="M147.77 252.015L55.233 287.571L56.8177 291.694L149.355 256.138L147.77 252.015Z" fill="white"/>
<path d="M158.441 279.775L65.9033 315.331L67.488 319.454L160.025 283.898L158.441 279.775Z" fill="white"/>
<path d="M121.472 232.395L149.176 304.469L145.053 306.054L117.179 233.54L121.472 232.395Z" fill="white"/>
<path d="M90.2107 244.719L84.5221 260.545L82.5496 266.034L77.9483 278.843L76.9624 281.581L75.9757 284.333L74.6764 287.945L65.3507 313.894L62.9263 307.586L70.5301 286.425L72.2504 281.635L72.5027 280.935L74.5371 275.271L77.104 268.127L79.0766 262.637L84.4285 247.742L84.4308 247.742L90.2107 244.719Z" fill="white"/>
<path opacity="0.1" d="M136.187 309.461L135.516 309.718L104.756 327.345L104.645 327.359L75.5098 252.333L75.7481 252.28L84.4284 247.742L84.4307 247.742L90.2106 244.72L105.784 236.578L105.805 236.573L136.187 309.461Z" fill="black"/>
<path d="M105.987 332.834C105.702 332.944 105.405 333.021 105.102 333.063L71.521 337.75C70.622 337.878 69.7061 337.697 68.9237 337.236C68.1414 336.775 67.5393 336.061 67.2164 335.213L38.3109 260.012C38.1038 259.473 38.0153 258.896 38.0514 258.32C38.0875 257.744 38.2474 257.182 38.5202 256.674C38.7929 256.165 39.1722 255.721 39.6321 255.372C40.092 255.023 40.6216 254.778 41.1851 254.652L72.7648 247.606C72.9755 247.558 73.1792 247.484 73.3709 247.384L104.087 231.328C104.349 231.19 104.626 231.083 104.913 231.006L138.716 221.997C139.674 221.74 140.693 221.847 141.577 222.297C142.46 222.748 143.145 223.51 143.5 224.436L168.703 290.007C168.948 290.639 169.029 291.323 168.936 291.994C168.844 292.666 168.582 293.303 168.176 293.846L159.459 305.549C159.006 306.158 158.388 306.626 157.679 306.899L138.629 314.218C138.511 314.263 138.397 314.318 138.287 314.381L106.545 332.57C106.366 332.672 106.179 332.761 105.987 332.834ZM41.1738 256.267C40.5628 256.502 40.0702 256.97 39.8043 257.569C39.5383 258.167 39.5208 258.846 39.7555 259.457L68.6611 334.658C68.8595 335.179 69.2296 335.618 69.7105 335.901C70.1915 336.185 70.7545 336.296 71.3071 336.217L104.889 331.53C105.201 331.486 105.502 331.383 105.775 331.227L137.518 313.038C137.696 312.936 137.882 312.847 138.074 312.774L157.123 305.454C157.56 305.287 157.939 304.999 158.218 304.624L166.934 292.922C167.184 292.588 167.345 292.196 167.402 291.784C167.459 291.371 167.409 290.95 167.259 290.562L142.055 224.991C141.837 224.422 141.416 223.953 140.873 223.676C140.33 223.399 139.703 223.334 139.115 223.492L105.312 232.502C105.136 232.549 104.966 232.615 104.804 232.699L74.088 248.756C73.7763 248.918 73.445 249.039 73.1022 249.116L41.5223 256.162C41.4037 256.189 41.2872 256.224 41.1738 256.267Z" fill="#E6E6E6"/>
<path d="M66.4929 254.344L95.072 328.696L90.5813 329.324L62.1345 255.318L66.4929 254.344Z" fill="white"/>
<path d="M74.7125 284.356C75.8511 284.356 76.7741 283.433 76.7741 282.294C76.7741 281.156 75.8511 280.233 74.7125 280.233C73.574 280.233 72.651 281.156 72.651 282.294C72.651 283.433 73.574 284.356 74.7125 284.356Z" fill="#3F3D56"/>
<path d="M147.807 286.552C148.946 286.552 149.868 285.63 149.868 284.491C149.868 283.353 148.946 282.43 147.807 282.43C146.668 282.43 145.745 283.353 145.745 284.491C145.745 285.63 146.668 286.552 147.807 286.552Z" fill="#6F5F90"/>
<path d="M148.642 247.264C150.981 253.351 148.166 273.523 147.175 279.998C147.144 280.203 147.059 280.397 146.929 280.559C146.799 280.721 146.628 280.845 146.434 280.92C146.24 280.994 146.03 281.016 145.825 280.983C145.62 280.95 145.427 280.863 145.266 280.732C140.194 276.586 124.591 263.491 122.251 257.404C121.585 255.672 121.267 253.825 121.315 251.969C121.363 250.114 121.776 248.286 122.53 246.59C123.284 244.894 124.366 243.364 125.712 242.086C127.058 240.807 128.642 239.807 130.375 239.141C132.108 238.475 133.955 238.157 135.811 238.205C137.667 238.253 139.495 238.666 141.191 239.42C142.887 240.174 144.418 241.255 145.697 242.601C146.975 243.947 147.976 245.531 148.642 247.264V247.264Z" fill="#6F5F90"/>
<path d="M135.446 259.99C139.675 259.99 143.103 256.562 143.103 252.334C143.103 248.106 139.675 244.678 135.446 244.678C131.217 244.678 127.789 248.106 127.789 252.334C127.789 256.562 131.217 259.99 135.446 259.99Z" fill="white"/>
<path d="M125.611 235.815C125.921 234.678 126.476 233.623 127.238 232.723C128 231.824 128.95 231.103 130.021 230.61C131.092 230.118 132.258 229.866 133.437 229.873C134.615 229.879 135.778 230.145 136.844 230.649L150.513 218.295L160.048 224.769L140.499 241.945C139.532 243.678 137.963 244.996 136.09 245.65C134.216 246.303 132.167 246.247 130.332 245.492C128.497 244.736 127.002 243.334 126.132 241.55C125.262 239.767 125.077 237.726 125.611 235.815Z" fill="#FFB8B8"/>
<path d="M147.636 239.848L136.921 225.309L161.348 209.678L143.84 184.699C142.41 182.658 141.782 180.162 142.079 177.687C142.375 175.213 143.574 172.934 145.446 171.289C147.318 169.643 149.731 168.746 152.224 168.769C154.716 168.792 157.113 169.733 158.954 171.413L180.876 191.411C182.964 193.315 184.584 195.677 185.61 198.31C186.636 200.943 187.04 203.778 186.791 206.593C186.542 209.408 185.646 212.128 184.173 214.54C182.7 216.952 180.69 218.992 178.299 220.5L147.636 239.848Z" fill="#2F2E41"/>
<path d="M63.6874 277.994C64.656 277.323 65.4655 276.447 66.0589 275.428C66.6523 274.41 67.0152 273.274 67.1219 272.1C67.2286 270.926 67.0767 269.743 66.6767 268.635C66.2768 267.526 65.6385 266.518 64.807 265.683L71.89 248.676L62.6025 241.851L52.9374 266.01C51.6262 267.499 50.9072 269.418 50.9166 271.402C50.9259 273.387 51.663 275.299 52.9881 276.776C54.3132 278.253 56.1342 279.193 58.1062 279.418C60.0781 279.642 62.064 279.136 63.6874 277.994V277.994Z" fill="#FFB8B8"/>
<path d="M68.4731 260.725L51.722 256.825L64.2049 220.836C66.356 214.626 69.5296 208.82 73.5945 203.655L93.9593 177.764C95.8218 175.395 98.5471 173.862 101.538 173.498C104.53 173.135 107.543 173.972 109.918 175.826C112.294 177.68 113.837 180.399 114.211 183.389C114.585 186.378 113.759 189.394 111.913 191.775L89.3153 220.935L68.4731 260.725Z" fill="#2F2E41"/>
<path d="M272.611 412H-22.2261C-22.4314 412 -22.6282 411.919 -22.7734 411.773C-22.9185 411.628 -23 411.432 -23 411.226C-23 411.021 -22.9185 410.824 -22.7734 410.679C-22.6282 410.534 -22.4314 410.453 -22.2261 410.453H272.611C272.817 410.453 273.013 410.534 273.159 410.679C273.304 410.824 273.385 411.021 273.385 411.226C273.385 411.432 273.304 411.628 273.159 411.773C273.013 411.919 272.817 412 272.611 412Z" fill="#CCCCCC"/>
<path d="M295 412H289V60.9944C289 60.2002 289.316 59.4386 289.879 58.877C290.441 58.3155 291.204 58 292 58C292.796 58 293.559 58.3155 294.121 58.877C294.684 59.4386 295 60.2002 295 60.9944V412Z" fill="#E6E6E6"/>
<path d="M437.442 412H329.103C328.897 412 328.701 411.919 328.555 411.773C328.41 411.628 328.329 411.432 328.329 411.226C328.329 411.021 328.41 410.824 328.555 410.679C328.701 410.534 328.897 410.453 329.103 410.453H437.442C437.647 410.453 437.844 410.534 437.989 410.679C438.134 410.824 438.216 411.021 438.216 411.226C438.216 411.432 438.134 411.628 437.989 411.773C437.844 411.919 437.647 412 437.442 412Z" fill="#CCCCCC"/>
<path d="M336.612 104H249.977C249.188 103.999 248.431 103.686 247.873 103.13C247.315 102.573 247.001 101.819 247 101.032V75.9681C247.001 75.1812 247.315 74.4267 247.873 73.8703C248.431 73.3139 249.188 73.0009 249.977 73H336.618C337.126 73.0003 337.626 73.1299 338.069 73.3765L360.474 85.8417C360.935 86.0986 361.32 86.4736 361.589 86.9279C361.857 87.3823 361.999 87.8997 362 88.4269C362.001 88.9542 361.861 89.4722 361.595 89.9277C361.329 90.3833 360.946 90.7599 360.485 91.0188L338.074 103.617C337.628 103.868 337.124 104 336.612 104Z" fill="#6F5F90"/>
<path d="M328.997 158H241.609C241.092 158 240.584 157.868 240.134 157.617L217.528 145.019C217.063 144.76 216.677 144.383 216.408 143.928C216.14 143.472 215.999 142.954 216 142.427C216.001 141.9 216.144 141.382 216.415 140.928C216.686 140.474 217.074 140.099 217.54 139.842L240.139 127.376C240.586 127.13 241.09 127 241.602 127H328.997C329.793 127.001 330.556 127.314 331.119 127.87C331.682 128.427 331.999 129.181 332 129.968V155.032C331.999 155.819 331.682 156.573 331.119 157.13C330.556 157.686 329.793 157.999 328.997 158Z" fill="#E6E6E6"/>
<path d="M329.023 212H242.388C241.876 212 241.372 211.868 240.926 211.617L218.515 199.019C218.054 198.76 217.671 198.383 217.405 197.928C217.139 197.472 216.999 196.954 217 196.427C217.001 195.9 217.143 195.382 217.411 194.928C217.68 194.474 218.065 194.099 218.526 193.842L240.931 181.376C241.374 181.13 241.874 181 242.382 181H329.023C329.812 181.001 330.569 181.314 331.127 181.87C331.685 182.427 331.999 183.181 332 183.968V209.032C331.999 209.819 331.685 210.573 331.127 211.13C330.569 211.686 329.812 211.999 329.023 212Z" fill="#E6E6E6"/>
</g>
<defs>
<clipPath id="clip0">
<rect width="488" height="412" fill="white" transform="translate(-23)"/>
</clipPath>
</defs>
</svg>
