<?xml version="1.0" encoding="UTF-8" standalone="no"?>
<!-- Created with Inkscape (http://www.inkscape.org/) -->

<svg
   version="1.1"
   id="svg41"
   xml:space="preserve"
   width="1280"
   height="1280"
   viewBox="0 0 1280 1280"
   sodipodi:docname="test1.svg"
   inkscape:version="1.1.1 (3bf5ae0, 2021-09-20)"
   xmlns:inkscape="http://www.inkscape.org/namespaces/inkscape"
   xmlns:sodipodi="http://sodipodi.sourceforge.net/DTD/sodipodi-0.dtd"
   xmlns="http://www.w3.org/2000/svg"
   xmlns:svg="http://www.w3.org/2000/svg"><defs
     id="defs45"><clipPath
       clipPathUnits="userSpaceOnUse"
       id="clipPath59"><path
         d="m 4532.16,7185.21 c -47.36,-5.26 -94.31,-11.92 -140.81,-19.9 312.44,-217.32 517.03,-578.91 517.03,-988.26 0,-427.5 -223.13,-802.95 -559.26,-1016.32 l -0.01,-0.07 c 213.71,-177.6 488.34,-284.41 787.87,-284.41 209.37,0 406.59,52.19 579.33,144.27 1.99,1.08 3.99,2.15 5.99,3.21 0.12,0.07 0.24,0.13 0.36,0.2 172.66,91.96 369.75,144.08 578.98,144.08 240.97,0 465.82,-69.13 655.82,-188.64 69.12,66.29 138.83,139.84 209.24,221.22 C 7058.77,5842.6 6695.86,6398.21 6185.71,6759.65 5794.25,7036.98 5316.13,7200 4800,7200 c -90.54,0 -179.9,-5.02 -267.84,-14.79 z m 1198.09,-2157.1 c 3.43,1.89 6.86,3.76 10.28,5.68 -3.42,-1.92 -6.85,-3.79 -10.28,-5.68 z m 50.61,29.41 c 54.71,33.56 54.71,33.55 0,0 z m -58.24,-33.61 -0.32,-0.18 0.09,0.05 0.09,0.05 0.14,0.08"
         clip-rule="evenodd"
         id="path57" /></clipPath><linearGradient
       x1="0"
       y1="0"
       x2="1"
       y2="0"
       gradientUnits="userSpaceOnUse"
       gradientTransform="matrix(882.642,61.7203,168.341,-2407.39,5614.88,7284.6)"
       spreadMethod="pad"
       id="linearGradient65"><stop
         style="stop-opacity:1;stop-color:#00adef"
         offset="0"
         id="stop61" /><stop
         style="stop-opacity:1;stop-color:#0994dc"
         offset="1"
         id="stop63" /></linearGradient><clipPath
       clipPathUnits="userSpaceOnUse"
       id="clipPath75"><path
         d="m 7166.7,5200.59 -0.74,-0.83 0.05,4.87 c -108.76,640.3 -471.22,1194.33 -980.3,1555.02 C 5794.25,7036.98 5316.13,7200 4800,7200 c -90.54,0 -179.9,-5.02 -267.84,-14.79 -47.36,-5.26 -94.32,-11.9 -140.81,-19.9 274.76,-191.11 466.13,-493.81 508.28,-842.43 540.46,-21.86 1034.96,-222.54 1425.88,-544.45 C 7022.64,5204.35 7262,4579.46 6057.41,4375.88 4998.23,4196.88 3811.64,5455.84 2420.85,5117.72 2407.09,5013.77 2400,4907.71 2400,4800 c 0,-505.39 156.29,-974.35 423.18,-1361.15 410.31,135.28 809.7,561.95 755.67,837.46 93.15,-350.63 -106.33,-701.24 -589.17,-1051.86 413.19,-474.34 1009.71,-784.82 1679.03,-820.91 0.04,-0.02 0.08,-0.02 0.13,-0.02 42.91,-1.94 86.63,-3.07 131.16,-3.52 1325.26,0 2400,1074.73 2400,2400 0,136.48 -11.4,270.31 -33.3,400.59"
         clip-rule="evenodd"
         id="path73" /></clipPath><linearGradient
       x1="0"
       y1="0"
       x2="1"
       y2="0"
       gradientUnits="userSpaceOnUse"
       gradientTransform="matrix(-2635.26,2926.75,3662.17,3297.43,4786.66,1183.37)"
       spreadMethod="pad"
       id="linearGradient81"
       inkscape:swatch="gradient"><stop
         style="stop-opacity:1;stop-color:#00adef"
         offset="0"
         id="stop77" /><stop
         style="stop-opacity:1;stop-color:#99def9"
         offset="1"
         id="stop79" /></linearGradient></defs><sodipodi:namedview
     id="namedview43"
     pagecolor="#ffffff"
     bordercolor="#666666"
     borderopacity="1.0"
     inkscape:pageshadow="2"
     inkscape:pageopacity="0.0"
     inkscape:pagecheckerboard="0"
     showgrid="false"
     inkscape:zoom="0.61875"
     inkscape:cx="209.29293"
     inkscape:cy="575.35354"
     inkscape:window-width="1920"
     inkscape:window-height="1007"
     inkscape:window-x="0"
     inkscape:window-y="0"
     inkscape:window-maximized="1"
     inkscape:current-layer="layer3" /><g
     id="g47"
     inkscape:groupmode="layer"
     inkscape:label="ink_ext_XXXXXX"
     transform="matrix(1.3333333,0,0,-1.3333333,0,1280)"
     style="display:none"><g
       id="g49"
       transform="scale(0.1)"><path
         d="M 0,0 H 9599.98 V 9600 H 0 V 0"
         style="fill:#6f5f90;fill-opacity:1;fill-rule:evenodd;stroke:none"
         id="path51" /><g
         id="g53"><g
           id="g55"
           clip-path="url(#clipPath59)"><path
             d="m 4532.16,7185.21 c -47.36,-5.26 -94.31,-11.92 -140.81,-19.9 312.44,-217.32 517.03,-578.91 517.03,-988.26 0,-427.5 -223.13,-802.95 -559.26,-1016.32 l -0.01,-0.07 c 213.71,-177.6 488.34,-284.41 787.87,-284.41 209.37,0 406.59,52.19 579.33,144.27 1.99,1.08 3.99,2.15 5.99,3.21 0.12,0.07 0.24,0.13 0.36,0.2 172.66,91.96 369.75,144.08 578.98,144.08 240.97,0 465.82,-69.13 655.82,-188.64 69.12,66.29 138.83,139.84 209.24,221.22 C 7058.77,5842.6 6695.86,6398.21 6185.71,6759.65 5794.25,7036.98 5316.13,7200 4800,7200 c -90.54,0 -179.9,-5.02 -267.84,-14.79 z m 1198.09,-2157.1 c 3.43,1.89 6.86,3.76 10.28,5.68 -3.42,-1.92 -6.85,-3.79 -10.28,-5.68 z m 50.61,29.41 c 54.71,33.56 54.71,33.55 0,0 z m -58.24,-33.61 -0.32,-0.18 0.09,0.05 0.09,0.05 0.14,0.08"
             style="opacity:1;fill:#ffffff;fill-opacity:1;fill-rule:nonzero;stroke:none"
             id="path67" /></g></g><g
         id="g69"><g
           id="g71"
           clip-path="url(#clipPath75)"><g
             id="g7511" /></g></g><path
         d="m 7166.7,5200.59 c -0.25,-0.28 -0.49,-0.57 -0.74,-0.86 0.25,0.29 0.49,0.58 0.74,0.86 z M 4800,2863.73 c -592.05,0 -1133.39,217.57 -1548.4,577.09 -75.27,-72.12 -162.6,-144.25 -261.92,-216.37 413.19,-474.34 1009.71,-784.82 1679.03,-820.91 l 0.13,-0.02 c 42.91,-1.94 86.63,-3.07 131.16,-3.52 1325.26,0 2400,1074.73 2400,2400 0,136.48 -11.4,270.31 -33.3,400.59 -0.23,1.34 -0.45,2.69 -0.69,4.04 -0.01,-1.63 -0.03,-3.26 -0.05,-4.9 -16.15,-1292.67 -1069.47,-2336 -2365.96,-2336"
         style="opacity:0;fill:#fffff9;fill-opacity:0.266667;fill-rule:evenodd;stroke:none"
         id="path85" /></g></g><g
     inkscape:groupmode="layer"
     id="layer3"
     inkscape:label="ink_ext_XXXXXX 1"><path
       d="m 7166.7,5200.59 -0.74,-0.83 0.05,4.87 c -108.76,640.3 -471.22,1194.33 -980.3,1555.02 C 5794.25,7036.98 5316.13,7200 4800,7200 c -90.54,0 -179.9,-5.02 -267.84,-14.79 -47.36,-5.26 -94.32,-11.9 -140.81,-19.9 274.76,-191.11 466.13,-493.81 508.28,-842.43 540.46,-21.86 1034.96,-222.54 1425.88,-544.45 C 7022.64,5204.35 7262,4579.46 6057.41,4375.88 4998.23,4196.88 3811.64,5455.84 2420.85,5117.72 2407.09,5013.77 2400,4907.71 2400,4800 c 0,-505.39 156.29,-974.35 423.18,-1361.15 410.31,135.28 809.7,561.95 755.67,837.46 93.15,-350.63 -106.33,-701.24 -589.17,-1051.86 413.19,-474.34 1009.71,-784.82 1679.03,-820.91 0.04,-0.02 0.08,-0.02 0.13,-0.02 42.91,-1.94 86.63,-3.07 131.16,-3.52 1325.26,0 2400,1074.73 2400,2400 0,136.48 -11.4,270.31 -33.3,400.59"
       style="display:inline;fill:#ffffff;fill-opacity:1;fill-rule:nonzero;stroke:none"
       id="path83"
       transform="matrix(0.13333333,0,0,-0.13333333,0,1280)" /></g></svg>
